<svg aria-hidden="true" style="position: absolute; width: 0; height: 0; overflow: hidden;" version="1.1" xmlns="http://www.w3.org/2000/svg" xmlns:xlink="http://www.w3.org/1999/xlink">
<defs>
<symbol id="ico-proxmox" viewBox="0 0 32 32">
<path fill="#e57000" style="fill: var(--color1, #e57000)" d="M6.571 2.433c-1.453 0.737-1.453 0.853-0.093 2.373 7.54 8.393 9.339 10.376 9.476 10.376 0.185 0.023 10.628-11.389 10.744-11.735 0.045-0.093-0.277-0.416-0.692-0.715-0.553-0.416-1.152-0.577-2.283-0.623-2.12-0.139-2.859 0.323-5.487 3.273-1.199 1.337-2.213 2.444-2.213 2.444-0.023 0-1.013-1.084-2.189-2.397s-2.536-2.631-2.997-2.884c-1.061-0.6-3.228-0.645-4.265-0.113zM1.729 5.823c-1.129 0.437-1.729 0.853-1.729 1.175 0 0.161 1.775 2.237 3.92 4.612 2.167 2.373 3.919 4.357 3.919 4.403 0 0.047-1.775 2.029-3.92 4.404-2.167 2.397-3.896 4.495-3.872 4.68 0.115 0.623 2.005 1.407 3.388 1.407 2.237-0.024 2.744-0.416 7.471-5.603 2.373-2.605 4.311-4.819 4.311-4.888 0-0.092-1.913-2.259-4.265-4.84-3.067-3.344-4.564-4.843-5.28-5.165-1.083-0.531-2.835-0.623-3.941-0.184zM26.352 5.983c-0.669 0.347-2.352 2.007-5.257 5.188-2.351 2.583-4.265 4.749-4.265 4.841 0 0.093 1.937 2.283 4.312 4.888 4.725 5.187 5.233 5.579 7.469 5.603 1.384 0 3.273-0.784 3.389-1.407 0.023-0.208-1.707-2.283-3.873-4.657-2.144-2.373-3.92-4.38-3.92-4.427 0-0.045 1.776-2.052 3.92-4.427 2.167-2.372 3.896-4.449 3.873-4.633-0.116-0.6-1.821-1.291-3.297-1.384-1.060-0.045-1.613 0.047-2.351 0.415zM10.605 22.631c-2.859 3.159-5.211 5.832-5.257 5.947-0.045 0.093 0.277 0.416 0.693 0.716 0.552 0.415 1.152 0.576 2.281 0.623 2.099 0.137 2.881-0.347 5.533-3.344 1.152-1.291 2.144-2.373 2.167-2.373s1.015 1.083 2.191 2.397c2.697 2.997 3.412 3.435 5.509 3.32 1.131-0.047 1.729-0.208 2.283-0.623 0.415-0.3 0.737-0.623 0.692-0.715-0.116-0.347-10.56-11.759-10.744-11.735-0.092 0-2.489 2.605-5.348 5.787z"></path>
</symbol>
<symbol id="ico-terraform" viewBox="0 0 32 32">
<path fill="#623ce4" style="fill: var(--color2, #623ce4)" d="M11.044 5.687l9.911 5.035v10.068l-9.911-5.035zM22.041 10.721v10.068l9.915-5.035v-10.068zM0.047 0.068v10.068l9.911 5.035v-10.068zM11.044 26.923l9.911 5.035v-10.064l-9.911-5.035z"></path>
</symbol>
<symbol id="ico-rust" viewBox="0 0 32 32">
<path d="M15.789 5.262c-5.791 0-10.504 4.716-10.504 10.504s4.716 10.504 10.504 10.504 10.504-4.716 10.504-10.504-4.716-10.504-10.504-10.504zM15.773 6.196c0.373 0.010 0.671 0.315 0.671 0.691 0 0 0 0 0 0v0c0 0.382-0.309 0.691-0.691 0.691s-0.691-0.309-0.691-0.691v0c0-0 0-0 0-0 0-0.382 0.309-0.691 0.691-0.691 0.007 0 0.014 0 0.021 0l-0.001-0zM17.356 7.333c2.509 0.482 4.588 2.011 5.8 4.106l0.022 0.041-0.816 1.84c-0.14 0.318 0.004 0.691 0.32 0.833l1.569 0.696c0.026 0.252 0.042 0.544 0.042 0.84 0 0.224-0.009 0.445-0.026 0.665l0.002-0.029h-0.873c-0.087 0-0.122 0.058-0.122 0.142v0.4c0 0.942-0.531 1.149-0.998 1.2-0.444 0.051-0.936-0.187-0.998-0.458-0.262-1.473-0.698-1.787-1.387-2.331 0.856-0.542 1.744-1.344 1.744-2.416 0-1.158-0.793-1.887-1.333-2.244-0.76-0.5-1.6-0.6-1.827-0.6h-9.022c1.218-1.357 2.854-2.316 4.704-2.676l0.054-0.009 1.064 1.116c0.24 0.251 0.638 0.262 0.889 0.020zM7.533 12.449c0.373 0.011 0.671 0.316 0.671 0.691 0 0 0 0 0 0v-0c0 0.382-0.309 0.691-0.691 0.691s-0.691-0.309-0.691-0.691v0c0-0 0-0 0-0 0-0.382 0.309-0.691 0.691-0.691 0.007 0 0.014 0 0.021 0l-0.001-0zM24.011 12.48c0.373 0.011 0.671 0.316 0.671 0.691 0 0 0 0 0 0v-0c0 0.382-0.309 0.691-0.691 0.691s-0.691-0.309-0.691-0.691v0c0-0 0-0 0-0 0-0.382 0.309-0.691 0.691-0.691 0.007 0 0.014 0 0.021 0l-0.001-0zM8.836 12.591h1.204v5.431h-2.431c-0.206-0.698-0.325-1.5-0.325-2.329 0-0.323 0.018-0.642 0.053-0.956l-0.003 0.039 1.489-0.662c0.318-0.142 0.462-0.513 0.32-0.831zM13.862 12.649h2.869c0.149 0 1.047 0.171 1.047 0.844 0 0.558-0.689 0.758-1.256 0.758h-2.662zM13.862 16.551h2.198c0.2 0 1.073 0.058 1.351 1.173 0.087 0.342 0.28 1.458 0.411 1.816 0.131 0.4 0.662 1.2 1.229 1.2h3.587c-0.252 0.336-0.51 0.633-0.787 0.911l0-0-1.46-0.313c-0.34-0.073-0.676 0.144-0.749 0.484l-0.347 1.618c-1.031 0.479-2.237 0.758-3.509 0.758-1.3 0-2.532-0.292-3.634-0.813l0.052 0.022-0.347-1.618c-0.073-0.34-0.407-0.558-0.747-0.484l-1.429 0.307c-0.257-0.265-0.499-0.549-0.722-0.848l-0.016-0.023h6.949c0.078 0 0.131-0.013 0.131-0.087v-2.458c0-0.071-0.053-0.087-0.131-0.087h-2.033zM10.656 22.18c0.373 0.011 0.671 0.316 0.671 0.691 0 0 0 0 0 0v-0c0 0.382-0.309 0.691-0.691 0.691s-0.691-0.309-0.691-0.691v0c0-0 0-0 0-0 0-0.382 0.309-0.691 0.691-0.691 0.007 0 0.014 0 0.021 0l-0.001-0zM20.889 22.211c0.373 0.011 0.671 0.316 0.671 0.691 0 0 0 0 0 0v-0c0 0.382-0.309 0.691-0.691 0.691s-0.691-0.309-0.691-0.691v0c0-0 0-0 0-0 0-0.382 0.309-0.691 0.691-0.691 0.007 0 0.014 0 0.021 0l-0.001-0z"></path>
<path stroke-linejoin="round" stroke-linecap="round" stroke-miterlimit="4" stroke-width="0.6667" d="M25.707 15.767v0c0-5.477-4.44-9.918-9.918-9.918v0c-5.477 0-9.918 4.44-9.918 9.918v0c0 5.477 4.44 9.918 9.918 9.918v0c5.477 0 9.918-4.44 9.918-9.918zM25.52 14.809l1.547 0.958-1.547 0.958 1.329 1.242-1.702 0.638 1.062 1.478-1.798 0.293 0.756 1.658-1.82-0.064 0.418 1.773-1.773-0.418 0.064 1.82-1.658-0.756-0.293 1.798-1.478-1.062-0.638 1.702-1.242-1.329-0.958 1.547-0.958-1.547-1.242 1.329-0.638-1.702-1.478 1.062-0.293-1.798-1.658 0.756 0.064-1.82-1.773 0.418 0.418-1.773-1.82 0.064 0.756-1.658-1.798-0.293 1.062-1.478-1.702-0.638 1.329-1.242-1.547-0.958 1.547-0.958-1.329-1.242 1.702-0.638-1.062-1.478 1.798-0.293-0.756-1.658 1.82 0.064-0.418-1.773 1.773 0.418-0.064-1.82 1.658 0.756 0.293-1.798 1.478 1.062 0.638-1.702 1.242 1.329 0.958-1.547 0.958 1.547 1.242-1.329 0.638 1.702 1.478-1.062 0.293 1.798 1.658-0.756-0.064 1.82 1.773-0.418-0.418 1.773 1.82-0.064-0.756 1.658 1.798 0.293-1.062 1.478 1.702 0.638z"></path>
</symbol>
<symbol id="ico-java" viewBox="0 0 32 32">
<path fill="#007396" style="fill: var(--color4, #007396)" d="M11.801 24.747c0 0-1.223 0.712 0.871 0.952 2.536 0.291 3.832 0.249 6.625-0.281 0 0 0.736 0.461 1.761 0.861-6.265 2.684-14.177-0.157-9.257-1.532zM11.035 21.244c0 0-1.371 1.015 0.723 1.232 2.709 0.279 4.848 0.303 8.551-0.411 0 0 0.512 0.519 1.316 0.803-7.572 2.215-16.009 0.173-10.589-1.624zM17.488 15.3c1.544 1.777-0.405 3.377-0.405 3.377s3.919-2.024 2.119-4.557c-1.681-2.363-2.971-3.536 4.009-7.584 0-0.001-10.955 2.735-5.723 8.764zM25.773 27.339c0 0 0.905 0.745-0.996 1.321-3.616 1.096-15.051 1.425-18.225 0.044-1.141-0.497 1-1.187 1.672-1.331 0.703-0.152 1.104-0.124 1.104-0.124-1.271-0.895-8.208 1.756-3.524 2.516 12.773 2.071 23.283-0.933 19.969-2.427zM12.389 17.613c0 0-5.816 1.381-2.059 1.883 1.585 0.212 4.748 0.164 7.693-0.083 2.408-0.203 4.824-0.636 4.824-0.636s-0.849 0.363-1.464 0.783c-5.905 1.553-17.315 0.831-14.029-0.757 2.776-1.341 5.035-1.189 5.035-1.189zM22.821 23.445c6.004-3.12 3.228-6.119 1.291-5.713-0.473 0.099-0.687 0.184-0.687 0.184s0.176-0.276 0.513-0.396c3.833-1.348 6.781 3.975-1.237 6.083 0-0.001 0.093-0.083 0.12-0.157zM19.201 0c0 0 3.325 3.325-3.153 8.44-5.195 4.103-1.184 6.443-0.001 9.115-3.032-2.737-5.257-5.144-3.765-7.385 2.192-3.292 8.263-4.887 6.92-10.169zM12.979 31.899c5.763 0.369 14.612-0.204 14.821-2.931 0 0-0.403 1.033-4.763 1.855-4.917 0.925-10.985 0.817-14.583 0.224 0-0.001 0.737 0.609 4.524 0.852z"></path>
</symbol>
<symbol id="ico-postgresql" viewBox="0 0 32 32">
<path fill="#336791" style="fill: var(--color5, #336791)" d="M22.837 0c-1.312 0.010-2.575 0.206-3.769 0.562l0.096-0.024-0.084 0.027c-0.677-0.126-1.464-0.205-2.267-0.22l-0.013-0c-1.571-0.027-2.92 0.355-4.008 0.989-1.072-0.372-3.296-1.013-5.64-0.885-1.632 0.089-3.413 0.585-4.733 1.979-1.316 1.393-2.012 3.549-1.865 6.483 0.040 0.809 0.271 2.129 0.653 3.839s0.92 3.711 1.591 5.536c0.671 1.827 1.405 3.467 2.553 4.581 0.573 0.559 1.363 1.028 2.293 0.989 0.653-0.027 1.244-0.313 1.753-0.736 0.248 0.327 0.513 0.469 0.755 0.601 0.304 0.167 0.6 0.28 0.907 0.355 0.551 0.137 1.493 0.321 2.597 0.133 0.376-0.063 0.772-0.185 1.167-0.36 0.015 0.44 0.032 0.871 0.049 1.307 0.055 1.381 0.089 2.657 0.504 3.776 0.067 0.183 0.249 1.124 0.969 1.955 0.72 0.832 2.131 1.351 3.737 1.007 1.133-0.243 2.575-0.68 3.532-2.043 0.947-1.347 1.373-3.279 1.457-6.412 0.021-0.169 0.047-0.313 0.073-0.448l0.225 0.020h0.027c1.209 0.055 2.521-0.117 3.617-0.627 0.971-0.449 1.705-0.904 2.24-1.711 0.133-0.2 0.28-0.441 0.32-0.857s-0.199-1.067-0.595-1.367c-0.793-0.603-1.292-0.373-1.827-0.263-0.476 0.11-1.027 0.18-1.592 0.194l-0.010 0c1.541-2.596 2.647-5.353 3.277-7.793 0.373-1.44 0.583-2.768 0.6-3.929s-0.077-2.189-0.773-3.079c-2.175-2.779-5.232-3.547-7.597-3.573-0.073-0.001-0.147-0.003-0.22-0.005zM22.775 0.853c2.237-0.021 5.096 0.607 7.148 3.229 0.461 0.589 0.599 1.451 0.583 2.512-0.017 1.060-0.213 2.329-0.572 3.72-0.696 2.693-2.011 5.833-3.863 8.651 0.061 0.044 0.13 0.082 0.204 0.112l0.007 0.002c0.387 0.16 1.268 0.297 3.027-0.064 0.443-0.093 0.767-0.156 1.103 0.1 0.15 0.128 0.245 0.317 0.245 0.529 0 0.013-0 0.026-0.001 0.040l0-0.002c-0.019 0.17-0.081 0.323-0.175 0.451l0.002-0.003c-0.34 0.511-1.011 0.995-1.871 1.393-0.761 0.355-1.853 0.54-2.821 0.551-0.485 0.005-0.933-0.032-1.313-0.151l-0.024-0.009c-0.147 1.413-0.484 4.204-0.704 5.477-0.176 1.027-0.484 1.843-1.072 2.453-0.587 0.611-1.417 0.979-2.535 1.219-1.384 0.297-2.393-0.023-3.044-0.571-0.649-0.547-0.947-1.272-1.125-1.716-0.123-0.307-0.187-0.704-0.248-1.235s-0.107-1.18-0.137-1.912c-0.029-0.745-0.045-1.619-0.045-2.497 0-0.305 0.002-0.609 0.006-0.913l-0 0.046c-0.558 0.512-1.263 0.872-2.045 1.010l-0.024 0.004c-0.919 0.156-1.739 0.003-2.228-0.12-0.264-0.067-0.494-0.159-0.709-0.276l0.016 0.008c-0.227-0.121-0.443-0.259-0.587-0.529-0.057-0.103-0.091-0.227-0.091-0.358 0-0.053 0.006-0.105 0.016-0.155l-0.001 0.005c0.047-0.18 0.15-0.332 0.289-0.44l0.002-0.001c0.264-0.215 0.613-0.335 1.14-0.444 0.959-0.197 1.293-0.332 1.497-0.493 0.173-0.139 0.369-0.419 0.716-0.829-0.001-0.013-0.003-0.032-0.004-0.051l-0-0.004c-0.653-0.019-1.261-0.193-1.794-0.488l0.020 0.010c-0.2 0.211-1.221 1.291-2.467 2.789-0.524 0.627-1.103 0.987-1.713 1.012-0.611 0.027-1.163-0.281-1.632-0.736-0.937-0.911-1.685-2.477-2.337-4.248-0.651-1.771-1.18-3.743-1.556-5.423-0.377-1.68-0.6-3.035-0.632-3.688-0.14-2.776 0.509-4.647 1.623-5.827 1.115-1.18 2.643-1.627 4.132-1.712 2.673-0.153 5.212 0.779 5.725 0.979 0.989-0.672 2.264-1.091 3.856-1.064 0.801 0.012 1.572 0.117 2.31 0.305l-0.068-0.015 0.027-0.012c0.257-0.095 0.587-0.194 0.923-0.273l0.062-0.012c0.825-0.202 1.776-0.324 2.754-0.337l0.009-0zM22.977 1.747h-0.195c-0.811 0.012-1.594 0.104-2.349 0.27l0.077-0.014c1.661 0.736 2.916 1.869 3.8 3 0.585 0.739 1.091 1.583 1.481 2.487l0.028 0.073c0.147 0.352 0.245 0.649 0.301 0.88 0.028 0.116 0.047 0.213 0.053 0.315 0.003 0.051 0.005 0.103-0.016 0.192 0 0.004-0.007 0.013-0.008 0.017 0.040 1.168-0.249 1.96-0.284 3.075-0.027 0.808 0.18 1.757 0.231 2.793 0.048 0.973-0.069 2.043-0.701 3.092 0.053 0.064 0.101 0.128 0.152 0.192 1.672-2.633 2.877-5.547 3.52-8.031 0.344-1.337 0.527-2.549 0.543-3.509 0.013-0.96-0.165-1.656-0.393-1.947-1.789-2.288-4.211-2.871-6.24-2.885zM16.591 2.088c-1.576 0.004-2.707 0.48-3.564 1.193-0.884 0.737-1.477 1.747-1.867 2.78-0.463 1.227-0.621 2.413-0.684 3.219l0.017-0.011c0.476-0.267 1.101-0.533 1.771-0.688 0.669-0.153 1.391-0.201 2.044 0.052s1.193 0.849 1.389 1.753c0.939 4.343-0.292 5.957-0.745 7.176-0.144 0.351-0.295 0.801-0.42 1.261l-0.021 0.090c0.057-0.013 0.115-0.029 0.172-0.035 0.32-0.027 0.571 0.080 0.72 0.144 0.456 0.189 0.769 0.587 0.939 1.040 0.044 0.119 0.076 0.247 0.095 0.379 0.017 0.046 0.027 0.098 0.027 0.153 0 0.006-0 0.011-0 0.017l0-0.001c-0.022 0.666-0.034 1.45-0.034 2.236 0 0.966 0.019 1.928 0.056 2.885l-0.004-0.138c0.031 0.717 0.076 1.349 0.133 1.848 0.057 0.497 0.139 0.876 0.191 1.004 0.171 0.427 0.42 0.985 0.871 1.365 0.451 0.379 1.097 0.632 2.279 0.379 1.024-0.22 1.656-0.525 2.079-0.964 0.421-0.439 0.673-1.049 0.835-1.984 0.241-1.4 0.727-5.46 0.785-6.224-0.027-0.576 0.059-1.019 0.243-1.356 0.189-0.347 0.483-0.559 0.736-0.673 0.127-0.057 0.245-0.096 0.343-0.124-0.119-0.17-0.225-0.311-0.336-0.448l0.012 0.015c-0.35-0.422-0.648-0.905-0.873-1.427l-0.015-0.039c-0.136-0.279-0.25-0.49-0.371-0.697l0.028 0.052c-0.177-0.32-0.401-0.72-0.636-1.169-0.469-0.9-0.98-1.991-1.245-3.053-0.264-1.061-0.303-2.16 0.375-2.935 0.6-0.688 1.653-0.973 3.235-0.813-0.047-0.14-0.075-0.256-0.153-0.443-0.386-0.898-0.851-1.672-1.405-2.374l0.017 0.022c-1.34-1.713-3.509-3.412-6.861-3.467zM7.735 2.157c-0.169 0-0.339 0.005-0.507 0.015-1.347 0.077-2.62 0.468-3.531 1.433-0.912 0.965-1.512 2.548-1.381 5.168 0.025 0.496 0.241 1.885 0.612 3.536 0.369 1.651 0.893 3.593 1.523 5.309 0.631 1.716 1.395 3.209 2.12 3.916 0.365 0.353 0.683 0.496 0.971 0.484 0.289-0.013 0.637-0.18 1.063-0.691 0.836-1.006 1.625-1.895 2.44-2.759l-0.026 0.028c-0.986-0.86-1.606-2.118-1.606-3.521 0-0.24 0.018-0.475 0.053-0.705l-0.003 0.026c0.137-0.985 0.156-1.907 0.14-2.635-0.016-0.709-0.067-1.181-0.067-1.476-0-0.004-0-0.008-0-0.013s0-0.009 0-0.013v0.001-0.007l-0.001-0.008v-0.001c0-0.002 0-0.004 0-0.007 0-1.613 0.289-3.158 0.819-4.586l-0.030 0.091c0.373-0.992 0.929-2 1.763-2.816-0.819-0.269-2.272-0.68-3.845-0.757-0.15-0.008-0.327-0.013-0.505-0.013h-0.001zM24.265 9.2c-0.905 0.012-1.413 0.245-1.68 0.551-0.377 0.433-0.413 1.193-0.179 2.129 0.233 0.937 0.716 1.985 1.169 2.856 0.227 0.436 0.447 0.828 0.624 1.147 0.179 0.32 0.309 0.547 0.389 0.74 0.073 0.179 0.155 0.336 0.237 0.483 0.351-0.74 0.413-1.467 0.377-2.224-0.047-0.937-0.264-1.896-0.232-2.867 0.036-1.135 0.26-1.873 0.28-2.751-0.296-0.040-0.639-0.064-0.986-0.064h-0zM13.287 9.353c-0.293 0.003-0.576 0.039-0.847 0.104l0.026-0.005c-0.583 0.144-1.095 0.349-1.569 0.615l0.031-0.016c-0.177 0.096-0.33 0.197-0.472 0.309l0.007-0.005-0.029 0.027c0.008 0.195 0.047 0.667 0.063 1.361 0.016 0.76-0.003 1.729-0.149 2.779-0.319 2.28 1.336 4.168 3.28 4.171 0.113-0.468 0.3-0.943 0.487-1.443 0.541-1.459 1.607-2.523 0.709-6.675-0.147-0.68-0.437-0.955-0.837-1.109-0.195-0.071-0.42-0.112-0.655-0.112-0.015 0-0.030 0-0.046 0.001l0.002-0zM23.843 9.625h0.067c0.088 0.003 0.169 0.012 0.24 0.029 0.072 0.016 0.133 0.040 0.184 0.073s0.088 0.084 0.1 0.145l0 0.001-0.001 0.011c0 0.004 0 0.009 0 0.013 0 0.062-0.017 0.119-0.048 0.168l0.001-0.001c-0.041 0.076-0.090 0.142-0.147 0.2l0-0c-0.132 0.145-0.309 0.246-0.509 0.282l-0.005 0.001c-0.028 0.004-0.061 0.006-0.094 0.006-0.169 0-0.326-0.054-0.455-0.145l0.002 0.002c-0.066-0.045-0.123-0.097-0.172-0.156l-0.001-0.001c-0.042-0.046-0.071-0.103-0.084-0.167l-0-0.002c-0.001-0.006-0.001-0.013-0.001-0.020 0-0.058 0.022-0.11 0.057-0.15l-0 0c0.043-0.049 0.095-0.089 0.153-0.119l0.003-0.001c0.128-0.072 0.301-0.125 0.497-0.155 0.073-0.011 0.145-0.016 0.213-0.013zM13.416 9.849c0.071 0 0.145 0.007 0.221 0.017 0.204 0.028 0.385 0.083 0.524 0.163 0.069 0.037 0.128 0.084 0.177 0.141l0.001 0.001c0.046 0.052 0.074 0.121 0.074 0.196 0 0.011-0.001 0.022-0.002 0.032l0-0.001c-0.014 0.080-0.049 0.15-0.1 0.206l0-0c-0.055 0.067-0.117 0.124-0.188 0.171l-0.003 0.002c-0.137 0.098-0.308 0.157-0.493 0.157-0.037 0-0.073-0.002-0.108-0.007l0.004 0c-0.223-0.038-0.417-0.147-0.559-0.303l-0.001-0.001c-0.061-0.063-0.113-0.135-0.155-0.214l-0.002-0.005c-0.036-0.056-0.057-0.124-0.057-0.198 0-0.014 0.001-0.027 0.002-0.040l-0 0.002c0.020-0.144 0.139-0.219 0.255-0.26 0.109-0.038 0.235-0.060 0.366-0.060 0.016 0 0.031 0 0.047 0.001l-0.002-0zM25.496 19.64l-0.004 0.001c-0.196 0.071-0.357 0.1-0.493 0.16-0.139 0.055-0.25 0.155-0.317 0.282l-0.002 0.003c-0.084 0.153-0.156 0.425-0.135 0.888 0.057 0.039 0.122 0.071 0.193 0.092l0.005 0.001c0.228 0.069 0.611 0.115 1.037 0.108 0.851-0.009 1.897-0.208 2.453-0.467 0.481-0.226 0.895-0.5 1.263-0.825l-0.006 0.005h-0.001c-1.857 0.384-2.907 0.281-3.551 0.016-0.169-0.071-0.315-0.16-0.446-0.268l0.003 0.002zM14.788 19.765h-0.028c-0.071 0.007-0.173 0.031-0.372 0.251-0.464 0.52-0.627 0.847-1.009 1.152-0.383 0.304-0.88 0.467-1.873 0.671-0.315 0.064-0.495 0.135-0.615 0.192 0.039 0.032 0.035 0.040 0.093 0.071 0.145 0.080 0.332 0.151 0.483 0.189 0.427 0.107 1.128 0.231 1.86 0.107 0.732-0.125 1.493-0.476 2.143-1.387 0.112-0.157 0.124-0.389 0.032-0.639-0.093-0.249-0.297-0.464-0.441-0.524-0.079-0.040-0.171-0.069-0.268-0.082l-0.005-0z"></path>
</symbol>
<symbol id="ico-raspberrypi" viewBox="0 0 32 32">
<path fill="#c51a4a" style="fill: var(--color6, #c51a4a)" d="M21.481 23.117c-1.143 1.319-1.779 3.72-0.945 4.495 0.795 0.599 2.935 0.521 4.513-1.64 1.147-1.44 0.759-3.857 0.108-4.496-0.973-0.74-2.371 0.219-3.676 1.657zM10.739 23.517c-1.211-1.387-2.784-2.211-3.801-1.599-0.68 0.509-0.807 2.247 0.164 3.956 1.437 2.032 3.461 2.239 4.295 1.743 0.879-0.651 0.4-2.849-0.657-4.1zM16.212 27.711c-1.471-0.035-3.731 0.585-3.701 1.376-0.024 0.537 1.775 2.096 3.607 2.017 1.768 0.040 3.599-1.519 3.576-2.199-0.005-0.697-1.997-1.236-3.476-1.179zM16.112 9.119c-1.7-0.043-3.336 1.244-3.336 1.991-0.005 0.907 1.344 1.835 3.347 1.859 2.057 0.013 3.357-0.745 3.376-1.68 0.021-1.059-1.859-2.185-3.357-2.169zM12.017 9.828c-2.847-0.46-5.217 1.2-5.123 4.256 0.093 1.179 6.173-4.055 5.124-4.236zM25.016 14.163c0.095-3.036-2.279-4.695-5.125-4.235-1.049 0.18 5.029 5.415 5.125 4.235zM25.501 15.261c-1.652-0.439-0.56 6.732 0.784 6.153 1.479-1.159 1.955-4.595-0.784-6.133zM5.637 21.495c1.343 0.6 2.436-6.572 0.785-6.133-2.737 1.537-2.264 4.973-0.785 6.153zM18.191 13.564c-1.528 1-1.805 3.237-0.615 4.995 1.188 1.757 3.391 2.417 4.921 1.437 1.528-0.977 1.804-3.216 0.616-4.995-1.189-1.777-3.393-2.417-4.923-1.417zM14.063 13.744c-1.528-0.979-3.732-0.339-4.919 1.419-1.189 1.779-0.915 4.016 0.615 5.015s3.732 0.359 4.921-1.419c1.18-1.757 0.9-3.996-0.62-4.993zM19.888 23.293c-0.012-1.857-1.669-3.357-3.708-3.336-2.036 0.021-3.681 1.519-3.672 3.376v0.039c0.013 1.859 1.672 3.356 3.711 3.336 2.036 0 3.675-1.517 3.656-3.356v-0.039zM24.167 3.116c-3.076 1.579-4.869 2.837-5.852 3.917 0.503 1.997 3.125 2.077 4.084 2.016-0.196-0.080-0.361-0.199-0.42-0.359 0.24-0.16 1.095-0.021 1.691-0.34-0.228-0.040-0.336-0.081-0.439-0.26 0.559-0.18 1.167-0.32 1.521-0.62-0.191 0-0.371 0.040-0.623-0.12 0.503-0.259 1.037-0.479 1.46-0.877-0.261 0-0.541 0-0.621-0.1 0.461-0.28 0.847-0.58 1.169-0.939-0.363 0.060-0.52 0.021-0.605-0.040 0.348-0.34 0.791-0.639 0.999-1.080-0.271 0.101-0.521 0.12-0.696 0 0.121-0.259 0.627-0.419 0.92-1.039-0.287 0.040-0.588 0.061-0.648 0 0.131-0.519 0.359-0.817 0.58-1.139-0.609 0-1.533 0-1.489-0.039l0.377-0.38c-0.597-0.16-1.205 0.020-1.648 0.16-0.199-0.14 0-0.34 0.247-0.54-0.52 0.081-0.977 0.18-1.379 0.341-0.219-0.2 0.14-0.38 0.32-0.581-0.799 0.16-1.119 0.36-1.459 0.56-0.24-0.22-0.020-0.419 0.139-0.599-0.599 0.219-0.899 0.499-1.219 0.757-0.12-0.139-0.279-0.239-0.080-0.599-0.419 0.24-0.739 0.52-0.979 0.839-0.259-0.179-0.159-0.399-0.159-0.599-0.44 0.36-0.72 0.72-1.059 1.081-0.081-0.041-0.14-0.2-0.18-0.461-1.039 1-2.519 3.497-0.38 4.475 1.799-1.459 3.975-2.537 6.372-3.337zM7.821 3.116c2.397 0.8 4.559 1.877 6.369 3.357 2.128-1 0.657-3.497-0.376-4.475-0.055 0.259-0.113 0.439-0.18 0.479-0.34-0.36-0.616-0.72-1.051-1.080 0 0.2 0.103 0.44-0.156 0.6-0.233-0.319-0.547-0.6-0.967-0.84 0.199 0.341 0.033 0.44-0.075 0.599-0.32-0.3-0.62-0.579-1.199-0.799 0.16 0.199 0.4 0.4 0.16 0.62-0.319-0.199-0.659-0.4-1.437-0.56 0.18 0.199 0.539 0.4 0.317 0.6-0.42-0.163-0.88-0.283-1.38-0.344 0.241 0.2 0.456 0.385 0.256 0.54-0.46-0.16-1.075-0.34-1.673-0.18l0.379 0.379c0.040 0.049-0.879 0.040-1.495 0.047 0.22 0.3 0.449 0.599 0.58 1.139-0.060 0.060-0.36 0.021-0.644 0 0.3 0.599 0.799 0.76 0.917 1.020-0.18 0.128-0.419 0.1-0.697 0 0.219 0.419 0.659 0.719 0.997 1.080-0.099 0.059-0.24 0.099-0.619 0.049 0.319 0.347 0.699 0.659 1.159 0.939-0.080 0.093-0.361 0.092-0.639 0.1 0.419 0.405 0.959 0.619 1.459 0.884-0.26 0.181-0.44 0.14-0.62 0.14 0.34 0.3 0.96 0.439 1.519 0.619-0.12 0.18-0.219 0.22-0.459 0.26 0.599 0.339 1.437 0.18 1.677 0.36-0.060 0.159-0.219 0.279-0.419 0.36 0.959 0.060 3.596-0.020 4.096-2.019-0.981-1.076-2.779-2.336-5.855-3.895zM10.133 0.137c0.315-0.009 0.581 0.18 0.869 0.268 0.705-0.227 0.867 0.084 1.213 0.212 0.769-0.16 1.003 0.188 1.372 0.559l0.429-0.012c1.159 0.676 1.74 2.048 1.943 2.753 0.203-0.705 0.779-2.079 1.943-2.753l0.428 0.009c0.369-0.377 0.604-0.719 1.372-0.557 0.348-0.14 0.507-0.44 1.215-0.221 0.44-0.139 0.827-0.5 1.409-0.060 0.491-0.199 0.968-0.26 1.393 0.12 0.66-0.080 0.871 0.081 1.032 0.28 0.144 0 1.079-0.139 1.509 0.48 1.080-0.12 1.419 0.619 1.032 1.317 0.22 0.34 0.449 0.659-0.067 1.3 0.2 0.359 0.083 0.737-0.36 1.217 0.121 0.499-0.099 0.84-0.499 1.119 0.080 0.68-0.64 1.080-0.839 1.219-0.081 0.4-0.241 0.779-1.060 0.979-0.119 0.599-0.619 0.697-1.099 0.819 1.58 0.9 2.917 2.077 2.917 4.975l0.241 0.399c1.799 1.079 3.416 4.536 0.899 7.352-0.159 0.879-0.439 1.499-0.681 2.197-0.359 2.817-2.776 4.135-3.415 4.295-0.919 0.7-1.917 1.36-3.256 1.817-1.256 1.281-2.635 1.781-3.992 1.781h-0.123c-1.377 0-2.751-0.5-4.016-1.78-1.343-0.459-2.339-1.117-3.263-1.817-0.639-0.16-3.044-1.476-3.416-4.295-0.249-0.699-0.525-1.339-0.691-2.216-2.525-2.817-0.908-6.273 0.888-7.353l0.229-0.4c0-2.896 1.34-4.076 2.917-4.973-0.479-0.12-0.96-0.22-1.097-0.82-0.82-0.2-0.98-0.579-1.060-0.979-0.2-0.14-0.919-0.539-0.839-1.237-0.4-0.281-0.62-0.62-0.5-1.139-0.419-0.461-0.539-0.86-0.36-1.22-0.52-0.639-0.279-0.977-0.060-1.299-0.38-0.7-0.040-1.459 1.039-1.339 0.419-0.62 1.36-0.479 1.497-0.479 0.161-0.2 0.38-0.38 1.039-0.3 0.419-0.38 0.9-0.32 1.399-0.136 0.201-0.16 0.381-0.219 0.541-0.219z"></path>
</symbol>
<symbol id="ico-redis" viewBox="0 0 32 32">
<path fill="#d82c20" style="fill: var(--color7, #d82c20)" d="M31.992 19.12c-0.013 0.305-0.417 0.647-1.247 1.080-1.708 0.889-10.555 4.528-12.437 5.509-1.884 0.981-2.929 0.972-4.417 0.26-1.488-0.711-10.901-4.515-12.597-5.324-0.847-0.405-1.279-0.747-1.293-1.069v3.235c0 0.323 0.445 0.665 1.293 1.071 1.696 0.811 11.111 4.613 12.597 5.324 1.488 0.712 2.533 0.721 4.417-0.261 1.883-0.981 10.729-4.619 12.437-5.509 0.868-0.452 1.252-0.804 1.252-1.123 0-0.301 0.001-3.189 0.001-3.189-0.001-0.001-0.005-0.001-0.007-0.003zM31.991 13.847c-0.015 0.305-0.417 0.645-1.245 1.079-1.708 0.889-10.555 4.528-12.437 5.509-1.884 0.981-2.929 0.972-4.417 0.261s-10.901-4.515-12.597-5.325c-0.847-0.404-1.279-0.747-1.293-1.068v3.235c0 0.323 0.445 0.664 1.293 1.069 1.696 0.811 11.109 4.613 12.597 5.324 1.488 0.712 2.533 0.721 4.417-0.26 1.883-0.981 10.729-4.62 12.437-5.509 0.868-0.453 1.252-0.805 1.252-1.124 0-0.301 0.001-3.189 0.001-3.189-0.001-0.001-0.005 0-0.008-0.001zM31.991 8.377c0.016-0.325-0.409-0.611-1.265-0.925-1.664-0.609-10.457-4.109-12.141-4.727-1.684-0.616-2.369-0.591-4.348 0.119-1.979 0.711-11.341 4.383-13.007 5.035-0.833 0.328-1.241 0.631-1.227 0.953v3.235c0 0.323 0.445 0.664 1.293 1.069 1.696 0.811 11.109 4.615 12.597 5.325s2.533 0.72 4.417-0.261c1.883-0.981 10.729-4.62 12.437-5.509 0.868-0.453 1.252-0.805 1.252-1.124 0-0.3 0.001-3.189 0.001-3.189zM11.459 11.439l7.415-1.139-2.24 3.284zM27.857 8.481l-4.86 1.919-4.383-1.732 4.856-1.92zM14.984 5.304l-0.717-1.323 2.237 0.875 2.109-0.691-0.571 1.367 2.149 0.805-2.772 0.288-0.621 1.493-1.003-1.665-3.201-0.288zM9.46 7.169c2.189 0 3.963 0.688 3.963 1.536s-1.775 1.536-3.963 1.536-3.964-0.689-3.964-1.536c0-0.848 1.775-1.536 3.964-1.536z"></path>
</symbol>
<symbol id="ico-ruby" viewBox="0 0 32 32">
<path fill="#cc342d" style="fill: var(--color8, #cc342d)" d="M26.875 0.111c4.044 0.7 5.191 3.464 5.105 6.36l0.020-0.041-1.82 23.851-23.639 1.621c-1.964-0.083-6.341-0.263-6.541-6.383l2.193-4 4.429 10.344 3.74-12.192-0.040 0.009 0.021-0.040 12.34 3.941-1.861-7.241-1.32-5.2 11.76-0.759-0.82-0.68-8.443-6.883 4.879-2.721zM0 25.452v0.035-0.039zM6.84 6.764c4.748-4.711 10.876-7.495 13.229-5.12 2.349 2.369-0.14 8.14-4.897 12.848-4.751 4.709-10.804 7.645-13.152 5.276-2.355-2.369 0.060-8.289 4.816-13z"></path>
</symbol>
<symbol id="ico-sonarqube" viewBox="0 0 32 32">
<path fill="#4e9bcd" style="fill: var(--color9, #4e9bcd)" d="M20.913 0.515l-0.62 1.021c4.636 2.816 8.407 7.027 10.621 11.853l1.085-0.496c-2.312-5.044-6.249-9.44-11.087-12.379zM11.283 1.213l-0.407 1.433c9.187 2.635 16.512 10.187 18.663 19.228l1.447-0.344c-2.272-9.561-10.005-17.535-19.703-20.317zM0 3.556v1.789c14.617 0 26.511 11.727 26.511 26.14h1.789c0-15.4-12.696-27.929-28.3-27.929z"></path>
</symbol>
<symbol id="ico-svelte" viewBox="0 0 32 32">
<path fill="#ff3e00" style="fill: var(--color10, #ff3e00)" d="M27.573 4.227c-1.779-2.559-4.705-4.213-8.016-4.213-1.867 0-3.611 0.526-5.093 1.437l0.042-0.024-7.467 4.747c-2.002 1.268-3.42 3.303-3.846 5.682l-0.008 0.051c-0.093 0.482-0.146 1.037-0.146 1.604 0 1.526 0.385 2.962 1.063 4.216l-0.023-0.047c-0.616 0.911-1.060 1.989-1.26 3.151l-0.007 0.049c-0.089 0.48-0.141 1.031-0.141 1.595 0 1.982 0.632 3.816 1.706 5.312l-0.019-0.027c1.787 2.562 4.721 4.218 8.041 4.218 1.856 0 3.591-0.517 5.069-1.416l-0.043 0.024 7.467-4.747c1.996-1.27 3.41-3.305 3.832-5.682l0.008-0.051c0.092-0.479 0.144-1.031 0.144-1.594 0-1.524-0.384-2.959-1.061-4.213l0.023 0.047c0.888-1.376 1.416-3.058 1.416-4.862 0-1.972-0.631-3.797-1.702-5.285l0.018 0.027zM13.76 28.173c-0.446 0.121-0.958 0.19-1.486 0.19-2.007 0-3.78-1.001-4.848-2.531l-0.013-0.019c-0.867-1.2-1.187-2.68-0.933-4.147l0.147-0.707 0.133-0.44 0.4 0.267c0.88 0.667 1.867 1.147 2.92 1.467l0.267 0.093-0.027 0.267c-0.027 0.373 0.080 0.787 0.293 1.107 0.44 0.627 1.2 0.933 1.933 0.733 0.16-0.053 0.32-0.107 0.453-0.187l7.44-4.747c0.373-0.24 0.613-0.6 0.707-1.027 0.080-0.44-0.027-0.893-0.267-1.253-0.44-0.613-1.2-0.893-1.933-0.707-0.16 0.053-0.333 0.12-0.467 0.2l-2.813 1.787c-0.862 0.521-1.904 0.829-3.017 0.829-2.001 0-3.769-0.995-4.837-2.516l-0.013-0.019c-0.637-0.883-1.020-1.986-1.020-3.179 0-0.342 0.031-0.677 0.091-1.001l-0.005 0.034c0.27-1.474 1.138-2.705 2.338-3.454l0.022-0.013 7.427-4.747c0.467-0.293 0.973-0.507 1.52-0.667 2.4-0.627 4.933 0.32 6.347 2.347 0.637 0.885 1.019 1.992 1.019 3.187 0 0.595-0.095 1.168-0.27 1.705l0.011-0.039-0.133 0.44-0.387-0.267c-0.839-0.618-1.814-1.118-2.863-1.448l-0.070-0.019-0.267-0.080 0.027-0.267c0.027-0.387-0.080-0.8-0.293-1.12-0.44-0.627-1.2-0.893-1.933-0.707-0.16 0.053-0.32 0.107-0.453 0.187l-7.453 4.787c-0.373 0.253-0.613 0.6-0.693 1.040-0.080 0.427 0.027 0.893 0.267 1.24 0.427 0.627 1.2 0.893 1.92 0.707 0.173-0.053 0.333-0.107 0.467-0.187l2.84-1.813c0.467-0.307 0.987-0.533 1.52-0.68 2.413-0.627 4.933 0.32 6.347 2.36 0.867 1.2 1.2 2.68 0.96 4.133-0.264 1.47-1.122 2.7-2.312 3.454l-0.021 0.012-7.44 4.733c-0.445 0.274-0.958 0.505-1.5 0.668l-0.046 0.012z"></path>
</symbol>
<symbol id="ico-typescript" viewBox="0 0 32 32">
<path fill="#007acc" style="fill: var(--color11, #007acc)" d="M0 16v16h32v-32h-32zM25.788 14.725c0.813 0.203 1.432 0.564 2.001 1.153 0.295 0.315 0.732 0.888 0.767 1.027 0.011 0.040-1.381 0.973-2.224 1.497-0.031 0.020-0.153-0.112-0.289-0.315-0.413-0.6-0.844-0.859-1.504-0.904-0.971-0.067-1.595 0.441-1.589 1.289-0.001 0.015-0.001 0.032-0.001 0.050 0 0.201 0.051 0.391 0.14 0.557l-0.003-0.006c0.213 0.441 0.611 0.707 1.853 1.244 2.292 0.987 3.272 1.636 3.881 2.56 0.68 1.031 0.833 2.677 0.371 3.901-0.507 1.331-1.767 2.235-3.54 2.533-0.548 0.097-1.848 0.083-2.437-0.024-1.285-0.229-2.504-0.864-3.256-1.697-0.295-0.324-0.869-1.173-0.833-1.233 0.015-0.021 0.147-0.103 0.293-0.188 0.144-0.081 0.681-0.392 1.189-0.687l0.92-0.533 0.193 0.285c0.269 0.411 0.857 0.975 1.213 1.163 1.021 0.539 2.423 0.463 3.113-0.157 0.257-0.217 0.419-0.54 0.419-0.9 0-0.021-0.001-0.042-0.002-0.062l0 0.003c0-0.371-0.047-0.533-0.24-0.813-0.248-0.355-0.756-0.653-2.199-1.28-1.651-0.711-2.361-1.152-3.012-1.853-0.392-0.445-0.694-0.981-0.871-1.57l-0.008-0.030c-0.121-0.452-0.152-1.585-0.056-2.041 0.34-1.596 1.544-2.707 3.281-3.037 0.564-0.107 1.875-0.067 2.428 0.071zM18.276 16.061l0.011 1.311h-4.167v11.835h-2.947v-11.835h-4.163v-1.285c0-0.712 0.015-1.307 0.035-1.32 0.016-0.021 2.551-0.032 5.623-0.027l5.593 0.016z"></path>
</symbol>
<symbol id="ico-visualstudiocode" viewBox="0 0 32 32">
<path fill="#007acc" style="fill: var(--color11, #007acc)" d="M30.867 3.449l-6.587-3.169c-0.253-0.124-0.55-0.197-0.864-0.197-0.55 0-1.049 0.223-1.409 0.584v0l-12.613 11.507-5.493-4.171c-0.221-0.169-0.501-0.271-0.805-0.271-0.346 0-0.661 0.132-0.897 0.348l-1.762 1.602c-0.269 0.245-0.436 0.596-0.436 0.987s0.167 0.741 0.434 0.984l0.001 0.001 4.764 4.347-4.764 4.347c-0.268 0.245-0.435 0.596-0.435 0.985s0.168 0.742 0.435 0.986l0.001 0.001 1.764 1.601c0.236 0.215 0.551 0.347 0.896 0.347 0.304 0 0.584-0.102 0.808-0.273l-0.003 0.002 5.493-4.171 12.613 11.507c0.36 0.361 0.858 0.584 1.408 0.584 0.314 0 0.611-0.073 0.876-0.203l-0.012 0.005 6.589-3.169c0.675-0.331 1.131-1.013 1.131-1.801 0-0.001 0-0.001 0-0.002v0-21.495c0-0 0-0 0-0 0-0.789-0.457-1.472-1.122-1.797l-0.012-0.005zM24.005 23.264l-9.571-7.264 9.571-7.264z"></path>
</symbol>
<symbol id="ico-wireguard" viewBox="0 0 32 32">
<path fill="#88171a" style="fill: var(--color12, #88171a)" d="M31.973 15.527c0 0 0.737-15.527-16.327-15.527-15.089 0-15.561 14.893-15.561 14.893s-2.219 17.107 15.911 17.107c17.391 0 15.977-16.473 15.977-16.473zM10.873 10.101c3.2-1.96 7.292-0.761 8.824 2.184 0.291 0.559 0.328 1.417 0.144 2.004-0.636 2.021-2.135 3.155-4.193 3.637 0.607-0.52 1.089-1.109 1.244-1.923 0.037-0.172 0.059-0.37 0.059-0.572 0-0.626-0.204-1.204-0.549-1.671l0.005 0.008c-0.525-0.715-1.362-1.174-2.307-1.174-0.352 0-0.689 0.064-1 0.18l0.020-0.006c-1.267 0.48-1.96 1.637-1.836 3.059 0.116 1.32 1.119 2.176 2.993 2.501-0.28 0.148-0.496 0.257-0.707 0.375-0.875 0.485-1.605 1.125-2.179 1.889l-0.013 0.018c-0.191 0.256-0.32 0.277-0.611 0.1-3.769-2.305-4.012-8.089 0.105-10.608zM8.053 24.344c-0.607 0.155-1.193 0.381-1.812 0.584 0.303-2.043 2.695-3.924 4.719-3.709-0.564 0.769-0.924 1.718-0.986 2.748l-0.001 0.014c-0.672 0.124-1.307 0.207-1.92 0.363zM20.937 4.4c0.597 0.023 1.197 0.013 1.796 0.027 0.165 0.011 0.318 0.034 0.466 0.066l-0.021-0.004c-0.143 0.217-0.292 0.406-0.456 0.581l0.002-0.003c-0.213 0.2-0.455 0.395-0.764 0.092-0.073-0.073-0.249-0.056-0.377-0.059-0.596-0.007-1.192-0.027-1.787-0.004-0.558 0.018-1.088 0.075-1.606 0.167l0.067-0.010c-0.096 0.017-0.237 0.333-0.195 0.451 0.104 0.276 0.255 0.58 0.479 0.756 0.825 0.653 1.703 1.237 2.533 1.884 0.805 0.629 1.556 1.32 2.013 2.267 0.595 1.237 0.613 2.533 0.356 3.836-0.429 2.173-1.529 3.973-3.311 5.283-0.717 0.527-1.607 0.827-2.428 1.204-0.724 0.333-1.467 0.62-2.192 0.949-1.307 0.595-2.040 2.013-1.825 3.487 0.199 1.353 1.387 2.483 2.745 2.716 1.631 0.28 3.315-0.781 3.713-2.44 0.448-1.863-0.564-3.528-2.46-4.032l-0.341-0.088c0.507-0.227 0.944-0.388 1.349-0.611q1.057-0.583 2.077-1.233c0.2-0.128 0.308-0.128 0.48 0.019 1.303 1.128 2.080 2.531 2.299 4.249 0.36 2.847-0.987 5.461-3.528 6.801-3.931 2.073-8.743-0.287-9.611-4.645-0.744-3.733 1.891-7.12 5.063-7.773 1.364-0.281 2.611-0.849 3.58-1.9 0.627-0.677 0.929-1.259 1.033-1.521 0.183-0.455 0.289-0.983 0.289-1.536 0-0.003 0-0.006 0-0.009v0c-0.023-0.484-0.137-0.935-0.325-1.345l0.009 0.022c-0.331-0.755-1.6-1.955-1.913-2.208l-2.987-2.339c-0.105-0.087-0.224-0.080-0.48-0.063-0.307 0.021-1.087 0.064-1.423-0.024 0.272-0.207 1.013-0.507 1.333-0.747-0.968-0.653-2.072-0.419-3.087-0.613 0.235-0.437 1.395-1.108 2.055-1.184-0.045-0.423-0.109-0.796-0.193-1.162l0.013 0.066c-0.040-0.148-0.205-0.293-0.351-0.377-0.349-0.205-0.721-0.375-1.124-0.579 0.342-0.224 0.758-0.361 1.205-0.373l0.003-0c0.052-0.002 0.113-0.003 0.174-0.003 0.368 0 0.725 0.044 1.068 0.127l-0.031-0.006c0.72 0.164 1.293 0.056 1.865-0.432-0.451-0.181-0.901-0.347-1.337-0.543-0.505-0.231-0.917-0.45-1.315-0.69l0.059 0.033c1.133 0.157 2.228 0.583 3.387 0.427l0.029-0.157-2.691-0.627c1.604-0.147 3.097-0.171 4.512 0.517 0.399 0.195 0.813 0.355 1.196 0.576 0.187 0.107 0.311 0.32 0.464 0.487 0.12 0.131 0.219 0.307 0.368 0.387 0.565 0.3 1.187 0.312 1.821 0.297l0.013-0.213c0.639 0.2 1.356 0.936 1.356 1.473-1.035 0-2.067-0.004-3.1 0.005-0.111 0-0.22 0.081-0.329 0.125 0.104 0.061 0.207 0.171 0.313 0.175zM19.604 2.871c-0.046 0.028-0.076 0.078-0.076 0.134 0 0.047 0.021 0.090 0.054 0.119l0 0c0.042 0.072 0.119 0.12 0.207 0.12 0.045 0 0.086-0.012 0.122-0.034l-0.001 0.001c0.1-0.051 0.197-0.104 0.317-0.167-0.096-0.083-0.173-0.152-0.253-0.217-0.141-0.116-0.257-0.043-0.371 0.044z"></path>
</symbol>
<symbol id="ico-ansible" viewBox="0 0 32 32">
<path fill="#e00" style="fill: var(--color13, #e00)" d="M14.156 15.297l6.248 4.927-4.136-10.216zM16 0c-8.839 0-16 7.161-16 16s7.161 16 16 16 16-7.161 16-16-7.161-16-16-16zM23.729 23.073c-0.015 0.628-0.537 1.123-1.167 1.107-0.315 0-0.555-0.12-0.885-0.391l-8.253-6.667-2.772 6.937h-2.397l6.996-16.807c0.165-0.419 0.569-0.693 1.019-0.675 0.435-0.019 0.84 0.252 0.989 0.675l6.365 15.325c0.060 0.148 0.107 0.312 0.107 0.464-0.001 0.012-0.001 0.012-0.001 0.031z"></path>
</symbol>
<symbol id="ico-docker" viewBox="0 0 32 32">
<path fill="#1488c6" style="fill: var(--color14, #1488c6)" d="M6.427 23.033c-0.912 0-1.739-0.747-1.739-1.653s0.747-1.657 1.74-1.657c0.997 0 1.747 0.747 1.747 1.656s-0.829 1.653-1.748 1.655zM27.776 14.016c-0.18-1.323-1-2.4-2.080-3.227l-0.42-0.333-0.339 0.413c-0.659 0.747-0.92 2.071-0.84 3.060 0.080 0.749 0.32 1.493 0.739 2.072-0.339 0.173-0.757 0.333-1.080 0.503-0.76 0.249-1.499 0.333-2.24 0.333h-21.387l-0.080 0.493c-0.16 1.576 0.080 3.227 0.749 4.72l0.325 0.58v0.080c2 3.311 5.56 4.8 9.437 4.8 7.459 0 13.576-3.227 16.476-10.177 1.9 0.083 3.819-0.413 4.72-2.235l0.24-0.413-0.4-0.249c-1.080-0.659-2.56-0.747-3.8-0.413zM17.099 12.693h-3.237v3.227h3.24v-3.229zM17.099 8.636h-3.237v3.227h3.24v-3.223zM17.099 4.497h-3.237v3.227h3.24v-3.227zM21.059 12.693h-3.219v3.227h3.227v-3.229zM9.061 12.693h-3.217v3.227h3.229v-3.229zM13.101 12.693h-3.2v3.227h3.219v-3.229zM5.061 12.693h-3.195v3.227h3.237v-3.229zM13.101 8.636h-3.2v3.227h3.219v-3.223zM9.041 8.636h-3.192v3.227h3.217v-3.223z"></path>
</symbol>
<symbol id="ico-github" viewBox="0 0 32 32">
<path d="M16 0.396c-8.84 0-16 7.164-16 16 0 7.071 4.584 13.067 10.94 15.18 0.8 0.151 1.093-0.344 1.093-0.769 0-0.38-0.013-1.387-0.020-2.72-4.451 0.965-5.389-2.147-5.389-2.147-0.728-1.847-1.78-2.34-1.78-2.34-1.449-0.992 0.112-0.972 0.112-0.972 1.607 0.112 2.451 1.648 2.451 1.648 1.427 2.447 3.745 1.74 4.66 1.331 0.144-1.035 0.556-1.74 1.013-2.14-3.553-0.4-7.288-1.776-7.288-7.907 0-1.747 0.62-3.173 1.647-4.293-0.18-0.404-0.72-2.031 0.14-4.235 0 0 1.34-0.429 4.4 1.64 1.28-0.356 2.64-0.532 4-0.54 1.36 0.008 2.72 0.184 4 0.54 3.040-2.069 4.38-1.64 4.38-1.64 0.86 2.204 0.32 3.831 0.16 4.235 1.020 1.12 1.64 2.547 1.64 4.293 0 6.147-3.74 7.5-7.3 7.893 0.56 0.48 1.080 1.461 1.080 2.96 0 2.141-0.020 3.861-0.020 4.381 0 0.42 0.28 0.92 1.1 0.76 6.401-2.099 10.981-8.099 10.981-15.159 0-8.836-7.164-16-16-16z"></path>
</symbol>
<symbol id="ico-gitlab" viewBox="0 0 32 32">
<path fill="#fca121" style="fill: var(--color15, #fca121)" d="M6.459 1.205c-0.591 0.001-1.092 0.383-1.271 0.913l-0.003 0.009-3.373 10.377c0 0.009-0.007 0.016-0.009 0.027l-1.709 5.248c-0.060 0.177-0.094 0.381-0.094 0.593 0 0.635 0.309 1.198 0.785 1.546l0.005 0.004 14.763 10.727c0.123 0.090 0.277 0.144 0.443 0.144 0.17 0 0.326-0.056 0.452-0.15l-0.002 0.001 14.765-10.72c0.482-0.352 0.791-0.915 0.791-1.55 0-0.213-0.035-0.418-0.099-0.61l0.004 0.014-1.68-5.156c-0.010-0.053-0.025-0.099-0.043-0.143l0.002 0.005-3.368-10.367c-0.184-0.535-0.682-0.912-1.269-0.912-0.003 0-0.005 0-0.008 0h0c-0.003-0-0.007-0-0.010-0-0.585 0-1.082 0.382-1.252 0.911l-0.003 0.009-3.208 9.877h-10.131l-3.213-9.877c-0.173-0.538-0.67-0.92-1.255-0.92-0.001 0-0.002 0-0.002 0h0zM6.451 3.099l2.899 8.904h-5.784zM25.555 3.099l2.891 8.904h-5.789zM11.429 13.512h9.149l-2.867 8.824-1.712 5.255zM4.076 13.519h5.763l4.115 12.667zM22.167 13.519h5.768l-9.883 12.669 3.945-12.144zM2.8 14.349l9.304 11.929-10.424-7.576c-0.103-0.075-0.169-0.195-0.169-0.33 0-0.045 0.007-0.087 0.020-0.128l-0.001 0.003zM29.2 14.349l1.269 3.896c0.013 0.038 0.020 0.081 0.020 0.126 0 0.134-0.065 0.254-0.166 0.328l-0.001 0.001v0.003l-10.427 7.573 0.033-0.047z"></path>
</symbol>
<symbol id="ico-go" viewBox="0 0 32 32">
<path fill="#00add8" style="fill: var(--color16, #00add8)" d="M2.415 14.287c-0.063 0-0.077-0.031-0.047-0.079l0.328-0.42c0.031-0.047 0.108-0.077 0.171-0.077h5.563c0.061 0 0.077 0.047 0.047 0.093l-0.265 0.404c-0.031 0.048-0.109 0.093-0.156 0.093zM0.063 15.72c-0.063 0-0.079-0.031-0.047-0.077l0.327-0.421c0.031-0.047 0.109-0.077 0.172-0.077h7.104c0.063 0 0.093 0.047 0.077 0.093l-0.124 0.373c-0.016 0.063-0.077 0.093-0.14 0.093zM3.833 17.153c-0.063 0-0.079-0.047-0.047-0.093l0.217-0.389c0.031-0.047 0.093-0.093 0.156-0.093h3.116c0.063 0 0.093 0.047 0.093 0.109l-0.031 0.373c0 0.063-0.063 0.109-0.109 0.109zM20.005 14.007c-0.981 0.249-1.652 0.436-2.617 0.685-0.235 0.061-0.249 0.077-0.453-0.156-0.232-0.265-0.404-0.436-0.731-0.592-0.983-0.483-1.933-0.343-2.82 0.233-1.060 0.685-1.605 1.699-1.589 2.96 0.015 1.247 0.872 2.275 2.103 2.447 1.060 0.14 1.947-0.233 2.649-1.028 0.14-0.172 0.264-0.359 0.42-0.577h-3.007c-0.327 0-0.405-0.203-0.296-0.467 0.203-0.483 0.576-1.293 0.795-1.699 0.067-0.148 0.214-0.249 0.384-0.249 0.002 0 0.004 0 0.006 0h5.67c-0.031 0.421-0.031 0.841-0.093 1.263-0.174 1.165-0.627 2.201-1.289 3.070l0.012-0.016c-1.121 1.48-2.587 2.4-4.44 2.648-1.527 0.203-2.945-0.093-4.191-1.027-1.153-0.873-1.808-2.027-1.979-3.46-0.203-1.699 0.296-3.225 1.324-4.565 1.107-1.448 2.571-2.368 4.363-2.695 1.464-0.265 2.867-0.093 4.128 0.763 0.827 0.547 1.417 1.293 1.808 2.197 0.093 0.14 0.031 0.219-0.156 0.265zM25.163 22.623c-1.419-0.032-2.712-0.437-3.803-1.372-0.883-0.748-1.495-1.793-1.679-2.979l-0.004-0.027c-0.28-1.76 0.203-3.319 1.263-4.705 1.137-1.496 2.508-2.275 4.363-2.601 1.589-0.28 3.085-0.125 4.44 0.795 1.231 0.84 1.995 1.979 2.197 3.473 0.264 2.104-0.343 3.817-1.792 5.283-1.028 1.044-2.291 1.697-3.74 1.993-0.42 0.079-0.84 0.093-1.245 0.141zM28.869 16.328c-0.015-0.203-0.015-0.359-0.045-0.515-0.28-1.543-1.699-2.415-3.179-2.072-1.449 0.327-2.384 1.247-2.727 2.711-0.28 1.216 0.312 2.447 1.433 2.945 0.857 0.373 1.713 0.327 2.54-0.093 1.231-0.64 1.9-1.636 1.977-2.976z"></path>
</symbol>
<symbol id="ico-helm" viewBox="0 0 32 32">
<path fill="#277a9f" style="fill: var(--color17, #277a9f)" d="M22.251 23.959c0.517-0.363 1.699 0.433 2.64 1.776s1.284 2.725 0.765 3.088c-0.517 0.363-1.7-0.433-2.64-1.776s-1.284-2.725-0.765-3.088zM9.872 23.959c-0.517-0.363-1.699 0.433-2.64 1.776s-1.284 2.725-0.765 3.088c0.517 0.363 1.7-0.433 2.64-1.776s1.284-2.725 0.765-3.088zM16.055 26.063c-0.632 0-1.144 1.329-1.144 2.969s0.512 2.969 1.144 2.969 1.144-1.329 1.144-2.969-0.512-2.969-1.144-2.969zM22.251 8.041c0.517 0.363 1.699-0.433 2.64-1.776s1.284-2.725 0.765-3.088c-0.517-0.363-1.7 0.433-2.64 1.776s-1.284 2.725-0.765 3.088zM9.872 8.041c-0.517 0.363-1.699-0.433-2.64-1.776s-1.284-2.725-0.765-3.088c0.517-0.363 1.7 0.433 2.64 1.776s1.284 2.725 0.765 3.088zM16.055 5.937c-0.632 0-1.144-1.329-1.144-2.969s0.512-2.969 1.144-2.969 1.144 1.329 1.144 2.969-0.512 2.969-1.144 2.969zM0.628 12.088h2.204v3.1h2.485v-3.1h2.204v8.327h-2.204v-3.305h-2.485v3.305h-2.204zM9.364 12.088h5.38v1.845h-3.177v1.307h2.716v1.845h-2.716v1.487h3.305v1.845h-5.508zM16.487 12.088h2.204v6.483h3.152v1.845h-5.355zM23.276 12.088h2.28l1.307 3.459 0.461 1.357h0.051l0.461-1.357 1.256-3.459h2.28v8.327h-2.049v-2.46c0-0.213 0.011-0.448 0.032-0.704s0.045-0.519 0.071-0.788 0.056-0.532 0.089-0.788c0.035-0.256 0.064-0.487 0.089-0.692h-0.051l-0.692 1.947-1.153 2.805h-0.82l-1.153-2.805-0.667-1.947h-0.051l0.089 0.692c0.033 0.256 0.064 0.519 0.089 0.788s0.049 0.532 0.071 0.788 0.032 0.491 0.032 0.704v2.46h-2.024z"></path>
</symbol>
<symbol id="ico-prometheus" viewBox="0 0 32 32">
<path fill="#e6522c" style="fill: var(--color18, #e6522c)" d="M16 0c-8.836 0-16 7.163-16 16 0 8.836 7.164 16 16 16s16-7.164 16-16c0-8.837-7.164-16-16-16zM16 29.947c-2.513 0-4.552-1.68-4.552-3.752h9.104c0 2.071-2.037 3.751-4.552 3.752zM23.52 24.953h-15.040v-2.728h15.040zM23.467 20.823h-14.945c-0.049-0.057-0.1-0.115-0.148-0.173-1.54-1.868-1.903-2.844-2.253-3.839-0.007-0.033 1.867 0.383 3.193 0.681 0 0 0.684 0.159 1.683 0.34-0.96-1.124-1.529-2.553-1.529-4.013 0-3.208 2.46-6.011 1.573-8.276 0.864 0.071 1.787 1.823 1.849 4.563 0.919-1.268 1.303-3.587 1.303-5.007 0-1.471 0.969-3.18 1.939-3.239-0.864 1.425 0.224 2.645 1.192 5.675 0.363 1.139 0.316 3.053 0.596 4.268 0.093-2.523 0.527-6.203 2.127-7.473-0.705 1.6 0.105 3.603 0.659 4.565 0.895 1.552 1.437 2.729 1.437 4.955-0.006 1.529-0.565 2.926-1.487 4.003l0.007-0.008c1.056-0.199 1.787-0.377 1.787-0.377l3.431-0.669c0 0-0.499 2.051-2.412 4.025z"></path>
</symbol>
<symbol id="ico-react" viewBox="0 0 32 32">
<path fill="#61dafb" style="fill: var(--color19, #61dafb)" d="M16 13.148c-1.575 0-2.852 1.277-2.852 2.852s1.277 2.852 2.852 2.852v0c1.575 0 2.852-1.277 2.852-2.852s-1.277-2.852-2.852-2.852v0zM8.011 21.673l-0.629-0.16c-4.691-1.185-7.381-3.197-7.381-5.519s2.691-4.333 7.381-5.519l0.629-0.159 0.177 0.624c0.545 1.86 1.163 3.443 1.899 4.957l-0.082-0.186 0.135 0.284-0.135 0.284c-0.656 1.329-1.275 2.912-1.761 4.551l-0.056 0.22zM7.089 11.933c-3.565 1.001-5.753 2.533-5.753 4.061 0 1.527 2.188 3.059 5.753 4.061 0.512-1.62 1.046-2.965 1.662-4.263l-0.086 0.202c-0.531-1.098-1.066-2.443-1.511-3.828l-0.065-0.234zM23.989 21.673l-0.177-0.625c-0.544-1.859-1.162-3.441-1.9-4.954l0.081 0.184-0.135-0.284 0.135-0.284c0.656-1.329 1.275-2.911 1.762-4.55l0.056-0.221 0.177-0.624 0.631 0.159c4.689 1.185 7.38 3.197 7.38 5.52s-2.691 4.333-7.38 5.519zM23.335 15.995c0.64 1.385 1.169 2.747 1.576 4.061 3.567-1.003 5.753-2.535 5.753-4.061 0-1.528-2.188-3.059-5.753-4.061-0.511 1.619-1.045 2.963-1.662 4.262l0.086-0.2zM7.080 11.927l-0.177-0.623c-1.319-4.648-0.919-7.979 1.097-9.141 1.977-1.141 5.152 0.207 8.479 3.621l0.453 0.465-0.453 0.465c-1.146 1.19-2.207 2.482-3.162 3.853l-0.068 0.103-0.18 0.257-0.313 0.027c-1.875 0.151-3.596 0.439-5.264 0.86l0.218-0.047zM9.608 3.087c-0.357 0-0.673 0.077-0.94 0.231-1.325 0.764-1.56 3.42-0.647 7.004 1.21-0.285 2.681-0.521 4.18-0.658l0.131-0.010c0.894-1.264 1.792-2.37 2.756-3.414l-0.020 0.022c-2.080-2.025-4.049-3.175-5.46-3.175zM22.393 30.236c-0.001 0-0.001 0 0 0-1.9 0-4.34-1.431-6.872-4.031l-0.453-0.465 0.453-0.465c1.146-1.19 2.206-2.482 3.16-3.854l0.068-0.103 0.18-0.257 0.312-0.027c1.875-0.15 3.597-0.438 5.267-0.858l-0.218 0.046 0.629-0.159 0.179 0.624c1.316 4.645 0.917 7.977-1.099 9.139-0.449 0.259-0.988 0.411-1.562 0.411-0.016 0-0.031-0-0.047-0l0.002 0zM16.932 25.728c2.080 2.025 4.049 3.175 5.46 3.175h0.001c0.356 0 0.673-0.077 0.939-0.231 1.325-0.764 1.561-3.421 0.647-7.005-1.212 0.286-2.682 0.522-4.182 0.658l-0.13 0.010c-0.893 1.265-1.791 2.371-2.755 3.416l0.020-0.022zM24.92 11.927l-0.629-0.159c-1.453-0.376-3.175-0.664-4.939-0.806l-0.111-0.007-0.312-0.027-0.18-0.257c-1.021-1.474-2.082-2.766-3.237-3.966l0.009 0.010-0.453-0.465 0.453-0.465c3.325-3.413 6.499-4.761 8.479-3.621 2.016 1.163 2.416 4.493 1.099 9.14zM19.667 9.653c1.523 0.139 2.969 0.364 4.312 0.668 0.915-3.584 0.679-6.24-0.647-7.004-1.317-0.761-3.793 0.405-6.4 2.944 0.943 1.022 1.841 2.128 2.666 3.289l0.069 0.103zM9.608 30.236c-0.014 0-0.030 0-0.046 0-0.574 0-1.113-0.152-1.577-0.419l0.015 0.008c-2.016-1.161-2.416-4.492-1.097-9.139l0.176-0.624 0.629 0.159c1.54 0.388 3.239 0.661 5.047 0.812l0.313 0.027 0.179 0.257c1.022 1.475 2.083 2.767 3.239 3.967l-0.010-0.010 0.453 0.465-0.453 0.465c-2.531 2.6-4.971 4.031-6.868 4.031zM8.021 21.667c-0.915 3.584-0.679 6.241 0.647 7.005 1.316 0.751 3.791-0.407 6.4-2.944-0.943-1.022-1.841-2.129-2.667-3.29l-0.069-0.103c-1.629-0.146-3.099-0.382-4.534-0.711l0.224 0.043zM16 22.504c-1.097 0-2.225-0.048-3.355-0.141l-0.313-0.027-0.18-0.257c-0.544-0.768-1.139-1.691-1.697-2.639l-0.103-0.19c-0.452-0.758-0.971-1.732-1.45-2.728l-0.105-0.243-0.133-0.284 0.133-0.284c0.584-1.239 1.102-2.212 1.658-3.161l-0.103 0.191c0.552-0.955 1.159-1.907 1.8-2.829l0.18-0.257 0.313-0.027c1.005-0.090 2.174-0.142 3.355-0.142s2.35 0.052 3.505 0.153l-0.15-0.011 0.312 0.027 0.179 0.257c1.177 1.666 2.294 3.567 3.252 5.56l0.104 0.24 0.135 0.284-0.135 0.284c-1.058 2.232-2.176 4.133-3.439 5.925l0.083-0.125-0.179 0.257-0.312 0.027c-1.129 0.093-2.259 0.141-3.356 0.141zM13.071 21.059c1.973 0.148 3.885 0.148 5.86 0 1.004-1.445 1.978-3.104 2.827-4.836l0.101-0.228c-0.947-1.958-1.922-3.617-3.012-5.19l0.083 0.126c-0.877-0.071-1.898-0.111-2.929-0.111s-2.052 0.040-3.063 0.119l0.134-0.008c-1.008 1.447-1.983 3.106-2.83 4.84l-0.099 0.224c0.951 1.96 1.926 3.619 3.014 5.193l-0.085-0.13z"></path>
</symbol>
<symbol id="ico-redhat" viewBox="0 0 32 32">
<path fill="#e00" style="fill: var(--color13, #e00)" d="M21.345 17.848c2.103 0 5.147-0.435 5.147-2.936 0.001-0.021 0.001-0.046 0.001-0.072 0-0.178-0.020-0.352-0.057-0.519l0.003 0.016-1.253-5.44c-0.288-1.197-0.541-1.74-2.643-2.791-1.631-0.833-5.184-2.211-6.235-2.211-0.977 0-1.263 1.261-2.429 1.261-1.123 0-1.956-0.941-3.007-0.941-1.009 0-1.667 0.687-2.173 2.101 0 0-1.413 3.987-1.596 4.565-0.024 0.085-0.038 0.183-0.038 0.285 0 0.015 0 0.030 0.001 0.044l-0-0.002c0 1.549 6.103 6.632 14.28 6.632zM26.813 15.928c0.291 1.376 0.291 1.52 0.291 1.703 0 2.353-2.645 3.66-6.124 3.66-7.86 0.005-14.747-4.601-14.747-7.645 0-0.002 0-0.004 0-0.006 0-0.444 0.093-0.866 0.261-1.248l-0.008 0.020c-2.825 0.141-6.487 0.647-6.487 3.877 0 5.292 12.54 11.815 22.468 11.815 7.613 0 9.532-3.443 9.532-6.16 0-2.14-1.849-4.567-5.183-6.016z"></path>
</symbol>
<symbol id="ico-stackoverflow" viewBox="0 0 32 32">
<path fill="#fe7a16" style="fill: var(--color20, #fe7a16)" d="M25.315 29.153v-8.539h2.845v11.385h-25.701v-11.385h2.84v8.539zM8.148 26.308h14.319v-2.849h-14.319zM8.493 19.839l13.973 2.919 0.601-2.76-13.971-2.916zM10.305 13.097l12.94 6.040 1.204-2.6-12.941-6.040-1.203 2.581zM13.925 6.717l10.956 9.14 1.812-2.16-10.955-9.137-1.8 2.156zM21.001 0l-2.328 1.725 8.54 11.472 2.328-1.725-8.543-11.472z"></path>
</symbol>
<symbol id="ico-dot-net" viewBox="0 0 32 32">
<path fill="#5c2d91" style="fill: var(--color21, #5c2d91)" d="M4.223 10.087v11.665h1.364v-8.433c0.003-0.094 0.004-0.204 0.004-0.314 0-0.453-0.025-0.9-0.074-1.339l0.005 0.054h0.051c0.108 0.28 0.233 0.52 0.38 0.744l-0.009-0.015 5.996 9.303h1.676v-11.665h-1.362v8.203c-0.002 0.079-0.003 0.172-0.003 0.265 0 0.511 0.031 1.014 0.091 1.509l-0.006-0.059h-0.031c-0.073-0.141-0.231-0.4-0.474-0.78l-5.836-9.138zM16.643 10.087v11.665h6.2l0.006-1.28h-4.812v-4.044h4.211v-1.229h-4.211v-3.878h4.518v-1.235zM23.893 10.087v1.235h3.353v10.431h1.362v-10.431h3.392v-1.235zM0.871 20.089c-0.241 0.006-0.456 0.11-0.608 0.274l-0.001 0.001c-0.162 0.162-0.263 0.386-0.263 0.634 0 0.002 0 0.004 0 0.006v-0c-0 0.003-0 0.008-0 0.012 0 0.246 0.1 0.468 0.262 0.628l0 0c0.158 0.166 0.38 0.269 0.626 0.269 0.005 0 0.010-0 0.014-0h-0.001c0.002 0 0.004 0 0.006 0 0.249 0 0.474-0.103 0.634-0.268l0-0c0.166-0.16 0.269-0.384 0.269-0.632 0-0.003 0-0.006-0-0.009v0c0-0.001 0-0.002 0-0.003 0-0.25-0.103-0.475-0.268-0.637l-0-0c-0.16-0.169-0.387-0.275-0.638-0.275-0.001 0-0.002 0-0.002 0h0c-0.004-0-0.008-0-0.012-0-0.007 0-0.013 0-0.020 0l0.001-0z"></path>
</symbol>
<symbol id="ico-eclipseide" viewBox="0 0 32 32">
<path fill="#2c2255" style="fill: var(--color22, #2c2255)" d="M14.811 0.032c-0.365 0.005-0.805 0.016-0.983 0.031-4.859 0.419-9.204 3.295-11.724 7.751-1.148 2.020-1.896 4.406-2.074 6.95l-0.003 0.053c-0.053 0.689-0.027 2.327 0.047 2.944 0.408 3.576 1.804 6.747 4.093 9.287 2.616 2.897 6.115 4.623 9.916 4.884 0.56 0.043 1.391 0.053 1.36 0.016-0.125-0.039-0.277-0.073-0.433-0.097l-0.018-0.002c-2.232-0.44-4.517-1.507-6.369-2.976-1.254-1.011-2.333-2.168-3.231-3.461l-0.036-0.054c-1.678-2.441-2.725-5.432-2.844-8.661l-0.001-0.030c-0.010-0.219-0.016-0.475-0.016-0.733 0-1.774 0.279-3.482 0.796-5.084l-0.033 0.117c1.047-3.363 3.16-6.301 5.967-8.304 1.599-1.171 3.496-2.041 5.552-2.483l0.097-0.017 0.591-0.131zM16.777 0.712c-2.584 0.155-5.036 1.020-7.044 2.488-2.5 1.827-4.408 4.325-5.44 7.128-0.193 0.529-0.376 1.093-0.376 1.172 0 0.016 5.104 0.032 13.747 0.032 11.285 0 13.755-0.011 13.755-0.048 0-0.063-0.204-0.7-0.377-1.171-0.204-0.56-0.768-1.747-1.093-2.296-0.533-0.911-1.213-1.831-1.965-2.656-2.201-2.427-4.791-3.912-7.76-4.445-1.047-0.188-2.4-0.267-3.445-0.204zM31.773 13.293c-0.027 0-6.389 0-14.145 0.005l-14.099 0.011-0.015 0.079c-0.048 0.213-0.179 1.443-0.179 1.657 0 0.037 2.38 0.043 14.329 0.043h14.335v-0.1c0-0.136-0.093-1.056-0.141-1.407-0.027-0.213-0.053-0.288-0.085-0.288zM17.676 16.808c-12.493-0.005-14.308 0-14.324 0.047-0.027 0.053 0.032 0.743 0.1 1.297 0.027 0.209 0.047 0.397 0.047 0.419 0 0.036 2.849 0.047 14.167 0.047h14.165l0.032-0.251c0.057-0.435 0.136-1.293 0.125-1.423l-0.011-0.125zM17.68 20.432c-11.844 0-13.763 0.005-13.763 0.047 0 0.027 0.072 0.277 0.161 0.56 0.63 1.921 1.572 3.581 2.779 5.010l-0.018-0.022c0.376 0.456 1.26 1.381 1.637 1.716 2.091 1.867 4.329 2.955 6.907 3.373 0.807 0.125 1.183 0.151 2.333 0.147 1.213 0 1.731-0.043 2.699-0.236 2.813-0.555 5.219-1.935 7.373-4.227 1.689-1.797 2.808-3.68 3.504-5.881l0.156-0.487z"></path>
</symbol>
<symbol id="ico-gitea" viewBox="0 0 32 32">
<path fill="#609926" style="fill: var(--color23, #609926)" d="M5.581 7.228c-2.46-0.005-5.755 1.559-5.573 5.48 0.284 6.125 6.56 6.693 9.068 6.743 0.275 1.149 3.227 5.112 5.412 5.32h9.573c5.741-0.381 10.040-17.363 6.853-17.427-5.271 0.248-8.395 0.373-11.073 0.395v5.3l-0.835-0.369-0.005-4.928c-3.075-0.001-5.781-0.144-10.919-0.397-0.643-0.004-1.539-0.113-2.501-0.116zM5.929 9.395h0.293c0.349 3.14 0.917 4.976 2.067 7.781-2.933-0.347-5.429-1.199-5.888-4.38-0.237-1.647 0.563-3.365 3.528-3.401zM17.339 12.481c0.2 0.003 0.404 0.040 0.596 0.128l0.999 0.431-0.716 1.305c-0.002 0-0.004-0-0.007-0-0.113 0-0.221 0.019-0.321 0.053l0.006-0.002c-0.349 0.114-0.593 0.406-0.593 0.749 0 0.097 0.019 0.189 0.055 0.275l-0.002-0.006c0.037 0.089 0.088 0.166 0.151 0.233l-0.001-0.001-1.235 2.248c-0.107 0.002-0.208 0.020-0.302 0.052l0.006-0.002c-0.349 0.114-0.593 0.406-0.593 0.749 0 0.097 0.019 0.189 0.055 0.275l-0.002-0.006c0.128 0.31 0.457 0.527 0.843 0.527 0.109 0 0.213-0.017 0.31-0.049l-0.006 0.002c0.348-0.114 0.592-0.406 0.592-0.749 0-0.097-0.020-0.19-0.056-0.277l0.002 0.006c-0.048-0.115-0.119-0.213-0.211-0.293l-0-0 1.203-2.189c0.029 0.003 0.062 0.005 0.095 0.005 0.106 0 0.207-0.016 0.302-0.046l-0.006 0.002c0.109-0.036 0.204-0.087 0.285-0.15l-0.001 0.001c0.464 0.195 0.844 0.353 1.117 0.488 0.411 0.203 0.556 0.337 0.6 0.487 0.044 0.147-0.004 0.429-0.236 0.925-0.173 0.369-0.46 0.893-0.799 1.511-0.006-0-0.013-0-0.020-0-0.113 0-0.222 0.019-0.321 0.053l0.006-0.002c-0.349 0.114-0.593 0.406-0.593 0.749 0 0.097 0.019 0.189 0.055 0.275l-0.002-0.006c0.128 0.31 0.457 0.527 0.843 0.527 0.109 0 0.213-0.017 0.31-0.049l-0.006 0.002c0.348-0.114 0.592-0.406 0.592-0.749 0-0.097-0.019-0.19-0.055-0.275l0.002 0.006c-0.043-0.104-0.105-0.194-0.183-0.27l0.001 0.001c0.335-0.611 0.623-1.136 0.808-1.531 0.251-0.536 0.381-0.935 0.267-1.32s-0.467-0.636-0.933-0.867c-0.307-0.151-0.689-0.311-1.147-0.503 0.001-0.015 0.002-0.033 0.002-0.050 0-0.096-0.019-0.188-0.054-0.274l0.002 0.006c-0.045-0.108-0.11-0.201-0.194-0.279l0 0 0.704-1.284 3.899 1.684c0.704 0.305 0.995 1.053 0.653 1.68l-2.68 4.907c-0.343 0.625-1.184 0.884-1.888 0.58l-5.516-2.384c-0.704-0.304-0.996-1.053-0.653-1.68l2.68-4.905c0.235-0.431 0.707-0.687 1.207-0.707z"></path>
</symbol>
<symbol id="ico-mongodb" viewBox="0 0 32 32">
<path fill="#47a248" style="fill: var(--color24, #47a248)" d="M22.907 12.691c-1.684-7.413-5.656-9.849-6.083-10.781-0.469-0.657-0.977-1.909-0.977-1.909-0.003 0.025-0.005 0.041-0.007 0.065v0.017h-0.001c-0.003 0.020-0.004 0.033-0.005 0.052v0.020h-0.003c0 0.013-0.003 0.024-0.003 0.035v0.035h-0.004c-0.001 0.011-0.001 0.024-0.004 0.033v0.028h-0.003c0 0.009 0 0.020-0.003 0.028v0.027h-0.003c0 0.013-0.001 0.029-0.003 0.043v0.003c-0.004 0.023-0.008 0.045-0.012 0.067v0.011h-0.003c-0.001 0.005-0.004 0.011-0.004 0.016v0.023h-0.004v0.029h-0.007v0.024h-0.007v0.028h-0.005v0.025h-0.005v0.023h-0.008v0.019h-0.005v0.024h-0.005v0.019h-0.007v0.017h-0.004v0.020h-0.005c-0.001 0.001-0.001 0.004-0.001 0.005v0.013h-0.004c-0.001 0.003-0.001 0.005-0.001 0.008v0.008h-0.003c-0.001 0.004-0.003 0.011-0.003 0.013-0.004 0.009-0.009 0.019-0.013 0.028v0.003c-0.003 0.003-0.005 0.007-0.007 0.009v0.011h-0.005v0.011h-0.007v0.011h-0.004v0.013h-0.008v0.019h-0.005v0.005h-0.005v0.011h-0.005v0.015h-0.005v0.011h-0.008v0.015h-0.005v0.011h-0.007v0.011h-0.004v0.013h-0.007v0.011h-0.005v0.008h-0.005v0.011h-0.008v0.012h-0.005v0.008h-0.007v0.011h-0.005v0.015h-0.007v0.005h-0.004v0.011h-0.008v0.005h-0.005v0.013h-0.005v0.005h-0.005v0.011h-0.007v0.008h-0.004l-0.003 0.005v0.005h-0.003c-0.001 0.003-0.003 0.003-0.003 0.005v0.001h-0.001c-0.001 0.004-0.003 0.007-0.005 0.009v0.004h-0.001c-0.007 0.008-0.011 0.016-0.016 0.024v0.001c-0.003 0.003-0.009 0.008-0.012 0.013v0.003h-0.001c-0.001 0.001-0.004 0.003-0.004 0.004v0.004h-0.003l-0.004 0.004v0.001h-0.001c0 0.001-0.003 0.003-0.004 0.005v0.005h-0.004l-0.003 0.003v0.003h-0.003c0 0.003-0.003 0.003-0.003 0.004v0.004h-0.005c0 0.001-0.001 0.003-0.003 0.004v0.008h-0.004v0.005h-0.005v0.008h-0.005v0.011h-0.007v-0.011h-0.007v0.005h-0.005v0.008h-0.007v0.011h-0.007v0.005h-0.005v0.008h-0.005v0.005h-0.005v0.011h-0.008v0.005h-0.005v0.008h-0.007v0.005h-0.005v0.007h-0.007v0.013h-0.003v0.005h-0.008v0.007h-0.005v0.003h-0.005v0.005h-0.007v0.013h-0.005v0.005h-0.007v0.005h-0.005v0.008h-0.007v0.005h-0.007v0.005h-0.005v0.005h-0.005v0.013h-0.005v0.007h-0.008v0.005h-0.005v0.005h-0.007v0.008h-0.005v0.005h-0.007v0.009h-0.005v0.005h-0.008v0.008h-0.003v0.005h-0.005v0.005h-0.007v0.005h-0.005v0.008h-0.007v0.005h-0.004c-0.001 0.001-0.001 0.003-0.001 0.003v0.003h-0.003l-0.005 0.005c0 0-0.003 0.003-0.005 0.004v0.008h-0.005v0.007h-0.005v0.005h-0.005v0.005h-0.004l-0.004 0.004v0.004h-0.003l-0.003 0.003v0.004h-0.003c-0.007 0.008-0.009 0.013-0.019 0.021-0.003 0.003-0.011 0.009-0.016 0.013-0.016 0.011-0.036 0.028-0.052 0.043-0.011 0.007-0.021 0.016-0.029 0.023v0.001h-0.001c-0.021 0.017-0.041 0.033-0.065 0.052v0.001c-0.032 0.027-0.063 0.052-0.099 0.083v-0.001h-0.003c-0.076 0.063-0.156 0.133-0.248 0.212v0.001h-0.001c-0.225 0.197-0.493 0.451-0.793 0.757l-0.025 0.025c-1.813 1.876-4.671 5.785-4.972 12.103-0.027 0.523-0.021 1.031 0.008 1.525v0.012c0.145 2.489 0.927 4.615 1.904 6.341v0.001c0.389 0.688 0.809 1.313 1.235 1.873v0.001c1.469 1.94 2.969 3.089 3.352 3.368 0.588 1.364 0.533 3.705 0.533 3.705l0.859 0.287c0 0-0.175-2.268 0.071-3.363 0.076-0.343 0.256-0.635 0.465-0.883 0.141-0.1 0.56-0.401 1.063-0.86 0.024-0.025 0.037-0.048 0.059-0.072 2.028-1.891 5.816-6.547 4.517-14.132z"></path>
</symbol>
<symbol id="ico-kubernetes" viewBox="0 0 32 32">
<path fill="#326ce5" style="fill: var(--color25, #326ce5)" d="M13.605 19.133l0.009 0.013-1.332 3.217c-1.266-0.819-2.231-2.009-2.751-3.415l-0.015-0.048 3.437-0.583 0.005 0.007c0.032-0.006 0.069-0.010 0.107-0.010 0.324 0 0.587 0.263 0.587 0.587 0 0.084-0.017 0.163-0.049 0.235l0.001-0.004zM12.495 16.295c0.251-0.070 0.432-0.297 0.432-0.566 0-0.176-0.078-0.334-0.2-0.442l-0.001-0.001 0.003-0.015-2.615-2.339c-0.637 1.021-1.015 2.261-1.015 3.589 0 0.264 0.015 0.525 0.044 0.782l-0.003-0.031 3.352-0.967zM14.021 13.655c0.096 0.070 0.216 0.113 0.346 0.113 0.315 0 0.573-0.249 0.586-0.561l0-0.001 0.013-0.007 0.2-3.493c-1.576 0.189-2.962 0.888-4.014 1.924l0.001-0.001 2.863 2.031zM15.035 17.321l0.964 0.465 0.963-0.463 0.24-1.040-0.667-0.831h-1.072l-0.667 0.831zM17.035 13.195c0.014 0.313 0.271 0.562 0.586 0.562 0.131 0 0.251-0.043 0.349-0.115l-0.002 0.001 0.011 0.004 2.845-2.017c-1.048-1.027-2.423-1.723-3.955-1.919l-0.034-0.004 0.197 3.487zM31.536 21.155l-7.697 9.575c-0.394 0.485-0.991 0.792-1.659 0.792-0.002 0-0.004 0-0.005 0l-12.348 0.004c-0 0-0.001 0-0.002 0-0.669 0-1.267-0.308-1.658-0.791l-0.003-0.004-7.701-9.573c-0.288-0.358-0.462-0.817-0.462-1.318 0-0.166 0.019-0.328 0.056-0.483l-0.003 0.014 2.747-11.94c0.144-0.627 0.567-1.152 1.151-1.431l11.123-5.316c0.27-0.132 0.588-0.209 0.923-0.209s0.653 0.077 0.936 0.215l-0.013-0.006 11.127 5.313c0.584 0.279 1.007 0.805 1.151 1.431l2.749 11.94c0.144 0.627-0.007 1.284-0.411 1.787zM27.151 18.412c-0.056-0.013-0.137-0.035-0.193-0.045-0.232-0.044-0.42-0.033-0.639-0.051-0.467-0.049-0.851-0.089-1.193-0.197-0.14-0.053-0.24-0.22-0.288-0.288l-0.268-0.079c0.051-0.353 0.081-0.76 0.081-1.174 0-0.686-0.080-1.354-0.232-1.994l0.012 0.058c-0.256-1.095-0.687-2.059-1.267-2.914l0.019 0.030c0.069-0.063 0.2-0.177 0.236-0.212 0.011-0.12 0.001-0.244 0.125-0.376 0.263-0.247 0.592-0.451 0.991-0.696 0.189-0.112 0.364-0.183 0.553-0.323 0.043-0.032 0.101-0.083 0.147-0.119 0.32-0.255 0.393-0.693 0.164-0.981s-0.675-0.315-0.993-0.060c-0.045 0.036-0.107 0.083-0.148 0.117-0.179 0.155-0.289 0.307-0.44 0.467-0.328 0.333-0.6 0.611-0.897 0.812-0.129 0.075-0.319 0.049-0.404 0.044l-0.253 0.18c-1.415-1.482-3.34-2.466-5.493-2.668l-0.035-0.003-0.016-0.297c-0.087-0.083-0.191-0.153-0.217-0.333-0.029-0.357 0.020-0.743 0.076-1.207 0.031-0.217 0.081-0.397 0.091-0.633 0.001-0.053-0.001-0.132-0.001-0.189 0-0.408-0.299-0.74-0.667-0.74-0.367 0-0.665 0.332-0.665 0.74l0.001 0.019c0 0.055-0.003 0.123 0 0.171 0.008 0.236 0.059 0.416 0.089 0.633 0.056 0.464 0.104 0.849 0.075 1.208-0.040 0.137-0.115 0.254-0.215 0.343l-0.001 0.001-0.016 0.281c-2.201 0.182-4.142 1.171-5.551 2.666l-0.004 0.004c-0.115-0.079-0.193-0.135-0.271-0.192l0.031 0.022c-0.12 0.016-0.24 0.053-0.396-0.039-0.297-0.2-0.569-0.477-0.897-0.811-0.151-0.16-0.26-0.312-0.439-0.465-0.040-0.035-0.103-0.083-0.148-0.117-0.126-0.103-0.287-0.168-0.462-0.176l-0.002-0c-0.010-0.001-0.022-0.001-0.034-0.001-0.2 0-0.378 0.091-0.496 0.234l-0.001 0.001c-0.229 0.288-0.156 0.728 0.164 0.983l0.009 0.007 0.139 0.111c0.189 0.14 0.363 0.212 0.552 0.323 0.399 0.247 0.728 0.451 0.991 0.696 0.101 0.109 0.12 0.301 0.133 0.384l0.213 0.191c-0.907 1.343-1.448 2.999-1.448 4.781 0 0.433 0.032 0.859 0.094 1.275l-0.006-0.047-0.277 0.080c-0.073 0.096-0.177 0.245-0.287 0.289-0.343 0.108-0.728 0.147-1.193 0.196-0.219 0.019-0.407 0.008-0.64 0.052-0.049 0.009-0.12 0.027-0.177 0.040l-0.005 0.003-0.009 0.003c-0.393 0.095-0.645 0.456-0.564 0.811 0.081 0.356 0.465 0.572 0.86 0.487l0.009-0.001 0.013-0.004 0.172-0.039c0.227-0.061 0.392-0.151 0.597-0.229 0.44-0.157 0.805-0.289 1.16-0.341 0.149-0.012 0.307 0.092 0.384 0.135l0.289-0.049c0.676 2.048 2.035 3.716 3.801 4.773l0.039 0.022-0.12 0.291c0.044 0.112 0.092 0.265 0.059 0.376-0.129 0.336-0.351 0.689-0.603 1.084-0.121 0.181-0.247 0.323-0.357 0.532-0.027 0.049-0.060 0.127-0.085 0.179-0.171 0.367-0.045 0.788 0.284 0.947 0.331 0.16 0.741-0.009 0.92-0.376v-0.003c0.027-0.052 0.061-0.12 0.083-0.169 0.093-0.216 0.125-0.401 0.192-0.611 0.176-0.443 0.273-0.907 0.516-1.196 0.067-0.080 0.173-0.109 0.287-0.14l0.151-0.273c0.918 0.364 1.981 0.575 3.094 0.575 1.097 0 2.146-0.205 3.11-0.579l-0.059 0.020 0.141 0.256c0.115 0.037 0.24 0.056 0.341 0.207 0.181 0.309 0.305 0.676 0.456 1.12 0.067 0.208 0.099 0.393 0.193 0.609 0.021 0.049 0.057 0.12 0.083 0.172 0.177 0.368 0.589 0.536 0.92 0.376 0.329-0.157 0.455-0.58 0.284-0.947-0.027-0.052-0.060-0.128-0.087-0.179-0.111-0.208-0.236-0.348-0.357-0.531-0.253-0.395-0.461-0.721-0.591-1.057-0.053-0.173 0.009-0.28 0.051-0.392-0.024-0.029-0.079-0.192-0.111-0.269 1.811-1.087 3.171-2.768 3.823-4.768l0.017-0.061c0.085 0.013 0.235 0.040 0.284 0.051 0.1-0.067 0.192-0.152 0.373-0.139 0.355 0.052 0.72 0.184 1.16 0.341 0.205 0.080 0.369 0.171 0.597 0.231 0.048 0.013 0.117 0.025 0.173 0.037l0.012 0.004 0.009 0.001c0.396 0.085 0.779-0.131 0.86-0.487 0.080-0.355-0.171-0.716-0.564-0.811zM21.867 12.935l-2.6 2.328v0.007c-0.124 0.108-0.202 0.267-0.202 0.443 0 0.269 0.181 0.496 0.429 0.565l0.004 0.001 0.004 0.013 3.368 0.971c0.021-0.203 0.033-0.438 0.033-0.676 0-0.552-0.064-1.089-0.186-1.604l0.009 0.047c-0.185-0.793-0.481-1.493-0.876-2.125l0.017 0.029zM16.516 20.035c-0.1-0.186-0.293-0.31-0.515-0.31-0.008 0-0.017 0-0.025 0.001l0.001-0c-0.215 0.008-0.399 0.131-0.494 0.308l-0.002 0.003h-0.003l-1.691 3.056c0.663 0.234 1.427 0.369 2.223 0.369 0.792 0 1.552-0.134 2.26-0.379l-0.048 0.015-1.693-3.061zM19.033 18.311c-0.032-0.006-0.069-0.010-0.106-0.010-0.092 0-0.18 0.021-0.257 0.059l0.003-0.002c-0.199 0.097-0.334 0.297-0.334 0.529 0 0.084 0.018 0.165 0.050 0.237l-0.001-0.004-0.004 0.005 1.347 3.251c1.274-0.822 2.244-2.022 2.759-3.439l0.015-0.048-3.467-0.587z"></path>
</symbol>
<symbol id="ico-vue-dot-js" viewBox="0 0 32 32">
<path fill="#4fc08d" style="fill: var(--color26, #4fc08d)" d="M32 2.147h-13.253l-2.747 4.733-2.747-4.733h-13.253l16 27.707zM16 18.773l-9.12-15.8h5.907l3.213 5.573 3.213-5.573h5.907z"></path>
</symbol>
<symbol id="ico-node-dot-js" viewBox="0 0 32 32">
<path fill="#393" style="fill: var(--color27, #393)" d="M15.997 32c-0.428 0-0.855-0.112-1.229-0.329l-3.915-2.316c-0.584-0.327-0.299-0.443-0.107-0.511 0.78-0.271 0.937-0.333 1.771-0.805 0.087-0.049 0.201-0.031 0.291 0.023l3.008 1.785c0.109 0.060 0.263 0.060 0.363 0l11.727-6.768c0.109-0.063 0.179-0.188 0.179-0.317v-13.533c0-0.132-0.071-0.256-0.183-0.323l-11.721-6.763c-0.108-0.063-0.252-0.063-0.361 0l-11.719 6.764c-0.113 0.065-0.185 0.193-0.185 0.321v13.533c0 0.129 0.072 0.252 0.185 0.313l3.212 1.856c1.743 0.872 2.811-0.155 2.811-1.187v-13.361c0-0.189 0.152-0.337 0.341-0.337h1.487c0.185 0 0.34 0.149 0.34 0.337v13.361c0 2.327-1.267 3.66-3.472 3.66-0.677 0-1.212 0-2.701-0.735l-3.077-1.769c-0.76-0.439-1.229-1.26-1.229-2.139v-13.533c0-0.879 0.471-1.7 1.229-2.137l11.727-6.776c0.743-0.42 1.728-0.42 2.464 0l11.725 6.776c0.76 0.439 1.232 1.259 1.232 2.137v13.533c0 0.879-0.472 1.697-1.232 2.139l-11.725 6.771c-0.373 0.217-0.799 0.329-1.233 0.329zM25.465 18.657c0-2.533-1.712-3.208-5.316-3.684-3.641-0.481-4.012-0.731-4.012-1.583 0-0.704 0.313-1.644 3.011-1.644 2.409 0 3.297 0.519 3.663 2.143 0.032 0.153 0.172 0.265 0.329 0.265h1.521c0.095 0 0.184-0.041 0.248-0.108 0.064-0.072 0.099-0.164 0.089-0.261-0.236-2.797-2.095-4.101-5.851-4.101-3.344 0-5.339 1.411-5.339 3.777 0 2.567 1.984 3.276 5.193 3.593 3.84 0.376 4.137 0.937 4.137 1.692 0 1.311-1.052 1.869-3.523 1.869-3.103 0-3.785-0.779-4.015-2.323-0.027-0.165-0.168-0.287-0.337-0.287h-1.516c-0.188 0-0.339 0.149-0.339 0.337 0 1.976 1.075 4.331 6.207 4.331 3.717 0.001 5.848-1.461 5.848-4.017z"></path>
</symbol>
<symbol id="ico-javascript" viewBox="0 0 32 32">
<path fill="#f7df1e" style="fill: var(--color28, #f7df1e)" d="M0 0h32v32h-32zM29.379 24.368c-0.233-1.46-1.184-2.687-4.004-3.831-0.981-0.46-2.072-0.78-2.396-1.52-0.121-0.44-0.14-0.68-0.061-0.94 0.2-0.861 1.22-1.12 2.020-0.88 0.52 0.16 1 0.56 1.301 1.2 1.379-0.901 1.379-0.901 2.34-1.5-0.36-0.56-0.539-0.801-0.781-1.040-0.84-0.94-1.959-1.42-3.779-1.379l-0.94 0.119c-0.901 0.22-1.76 0.7-2.28 1.34-1.52 1.721-1.081 4.721 0.759 5.961 1.82 1.36 4.481 1.659 4.821 2.94 0.32 1.56-1.16 2.060-2.621 1.88-1.081-0.24-1.68-0.781-2.34-1.781l-2.44 1.401c0.28 0.64 0.6 0.919 1.080 1.479 2.32 2.341 8.12 2.221 9.161-1.339 0.039-0.12 0.32-0.94 0.099-2.2zM17.401 14.708h-2.997c0 2.584-0.012 5.152-0.012 7.74 0 1.643 0.084 3.151-0.184 3.615-0.44 0.919-1.573 0.801-2.088 0.64-0.528-0.261-0.796-0.621-1.107-1.14-0.084-0.14-0.147-0.261-0.169-0.261l-2.433 1.5c0.407 0.84 1 1.563 1.765 2.023 1.14 0.68 2.672 0.9 4.276 0.54 1.044-0.301 1.944-0.921 2.415-1.881 0.68-1.24 0.536-2.76 0.529-4.461 0.016-2.739 0-5.479 0-8.239z"></path>
</symbol>
<symbol id="ico-python" viewBox="0 0 32 32">
<path fill="#3776ab" style="fill: var(--color29, #3776ab)" d="M19.080 0.24l1.2 0.267 0.973 0.347 0.787 0.4 0.6 0.427 0.453 0.453 0.333 0.453 0.213 0.44 0.133 0.4 0.053 0.347 0.027 0.267-0.013 0.173v7.12l-0.067 0.84-0.173 0.733-0.28 0.613-0.347 0.507-0.4 0.413-0.44 0.333-0.467 0.253-0.467 0.187-0.44 0.133-0.4 0.093-0.347 0.053-0.28 0.027h-7.96l-0.92 0.067-0.787 0.187-0.667 0.293-0.547 0.36-0.44 0.427-0.36 0.467-0.267 0.48-0.2 0.493-0.133 0.467-0.093 0.427-0.053 0.36-0.027 0.28v4.080h-2.973l-0.28-0.040-0.373-0.093-0.427-0.16-0.467-0.24-0.48-0.347-0.48-0.48-0.467-0.613-0.427-0.787-0.373-0.973-0.28-1.173-0.187-1.4-0.067-1.64 0.080-1.627 0.213-1.387 0.32-1.16 0.427-0.947 0.48-0.76 0.533-0.587 0.56-0.44 0.56-0.32 0.533-0.213 0.48-0.133 0.427-0.067 0.32-0.013h0.213l0.080 0.013h10.88v-1.107h-7.787l-0.013-3.667-0.027-0.493 0.067-0.453 0.147-0.413 0.227-0.373 0.333-0.347 0.413-0.307 0.507-0.267 0.587-0.24 0.68-0.2 0.773-0.16 0.853-0.133 0.947-0.080 1.027-0.053 1.12-0.027 1.693 0.067zM10.68 2.88l-0.307 0.44-0.107 0.547 0.107 0.547 0.307 0.453 0.44 0.293 0.547 0.12 0.547-0.12 0.44-0.293 0.307-0.453 0.107-0.547-0.107-0.547-0.307-0.44-0.44-0.293-0.547-0.12-0.547 0.12zM28.133 8.147l0.373 0.080 0.427 0.16 0.467 0.24 0.48 0.36 0.48 0.467 0.467 0.627 0.427 0.787 0.373 0.973 0.28 1.173 0.187 1.387 0.067 1.64-0.080 1.64-0.213 1.387-0.32 1.147-0.427 0.947-0.48 0.76-0.533 0.6-0.56 0.44-0.56 0.32-0.533 0.213-0.48 0.12-0.427 0.067-0.32 0.027-0.213-0.013h-10.96v1.093h7.787l0.013 3.68 0.027 0.48-0.067 0.453-0.147 0.413-0.227 0.387-0.333 0.333-0.413 0.32-0.507 0.267-0.587 0.227-0.68 0.2-0.773 0.173-0.853 0.12-0.947 0.093-1.027 0.053-1.12 0.013-1.693-0.053-1.427-0.187-1.2-0.267-0.973-0.333-0.787-0.4-0.6-0.44-0.453-0.453-0.333-0.453-0.213-0.44-0.133-0.4-0.053-0.333-0.027-0.267 0.013-0.173v-7.12l0.067-0.853 0.173-0.72 0.28-0.613 0.347-0.507 0.4-0.427 0.44-0.32 0.467-0.267 0.467-0.187 0.44-0.133 0.4-0.080 0.347-0.053 0.28-0.027 0.173-0.013h7.787l0.92-0.067 0.787-0.187 0.667-0.28 0.547-0.373 0.44-0.427 0.36-0.467 0.267-0.48 0.2-0.48 0.133-0.467 0.093-0.427 0.053-0.373 0.027-0.28v-4.080h2.787l0.187 0.013zM19.507 27.147l-0.307 0.44-0.107 0.547 0.107 0.547 0.307 0.44 0.44 0.307 0.547 0.107 0.547-0.107 0.44-0.307 0.307-0.44 0.107-0.547-0.107-0.547-0.307-0.44-0.44-0.307-0.547-0.107-0.547 0.107z"></path>
</symbol>
<symbol id="ico-php" viewBox="0 0 32 32">
<path fill="#777bb4" style="fill: var(--color30, #777bb4)" d="M9.347 13.609h-1.259l-0.687 3.531h1.117c0.741 0 1.293-0.14 1.656-0.419 0.363-0.28 0.607-0.745 0.733-1.399 0.123-0.627 0.067-1.069-0.165-1.327-0.233-0.257-0.697-0.387-1.396-0.387zM16 7.584c-8.836 0-16 3.768-16 8.416s7.164 8.417 16 8.417 16-3.769 16-8.417-7.164-8.416-16-8.416zM11.653 17.519c-0.348 0.333-0.767 0.584-1.223 0.735-0.448 0.144-1.020 0.219-1.713 0.219h-1.575l-0.436 2.241h-1.837l1.64-8.435h3.533c1.063 0 1.837 0.279 2.325 0.837 0.488 0.557 0.635 1.336 0.44 2.336-0.082 0.425-0.223 0.803-0.416 1.148l0.010-0.019c-0.191 0.34-0.44 0.653-0.748 0.937zM17.019 18.472l0.724-3.732c0.084-0.424 0.052-0.715-0.091-0.868-0.143-0.155-0.448-0.232-0.916-0.232h-1.456l-0.939 4.833h-1.824l1.64-8.436h1.823l-0.436 2.243h1.624c1.023 0 1.727 0.179 2.115 0.535s0.504 0.933 0.351 1.732l-0.763 3.925zM27.148 15.452c-0.080 0.425-0.221 0.803-0.416 1.148l0.010-0.018c-0.191 0.34-0.44 0.653-0.748 0.937-0.338 0.323-0.746 0.574-1.2 0.728l-0.023 0.007c-0.448 0.144-1.020 0.219-1.715 0.219h-1.573l-0.436 2.243h-1.837l1.64-8.435h3.532c1.063 0 1.837 0.279 2.325 0.837 0.488 0.556 0.636 1.335 0.441 2.335zM23.688 13.609h-1.257l-0.688 3.531h1.117c0.743 0 1.295-0.14 1.656-0.419 0.363-0.28 0.607-0.745 0.735-1.399 0.123-0.627 0.065-1.069-0.167-1.327s-0.699-0.387-1.396-0.387z"></path>
</symbol>
<symbol id="ico-school" viewBox="0 0 24 24">
<path d="M12 3l11.016 6v8.016h-2.016v-6.938l-9 4.922-11.016-6zM5.016 13.172l6.984 3.844 6.984-3.844v4.031l-6.984 3.797-6.984-3.797v-4.031z"></path>
</symbol>
<symbol id="ico-work" viewBox="0 0 24 24">
<path d="M14.016 6v-2.016h-4.031v2.016h4.031zM20.016 6q0.844 0 1.406 0.586t0.563 1.43v10.969q0 0.844-0.563 1.43t-1.406 0.586h-16.031q-0.844 0-1.406-0.586t-0.563-1.43v-10.969q0-0.844 0.563-1.43t1.406-0.586h4.031v-2.016q0-0.844 0.563-1.406t1.406-0.563h4.031q0.844 0 1.406 0.563t0.563 1.406v2.016h4.031z"></path>
</symbol>
<symbol id="ico-handyman" viewBox="0 0 24 24">
<path d="M21.656 18.188l-5.297-5.297h-0.984l-2.531 2.531v0.984l5.297 5.297q0.281 0.281 0.703 0.281t0.703-0.281l2.109-2.109q0.328-0.281 0.328-0.703t-0.328-0.703zM17.344 10.172l1.406-1.406 2.109 2.156q0.609-0.609 0.797-1.383t0-1.523-0.797-1.359l-3.516-3.516-1.406 1.406v-2.859l-0.703-0.703-3.563 3.563 0.703 0.703h2.859l-1.406 1.406 1.031 1.078-2.859 2.859-4.172-4.125v-1.406l-3-3-2.813 2.813 3 3.047h1.406l4.125 4.125-0.844 0.844h-2.109l-5.297 5.297q-0.281 0.281-0.281 0.703t0.281 0.703l2.109 2.109q0.328 0.281 0.727 0.281t0.68-0.281l5.297-5.297v-2.109l5.156-5.156z"></path>
</symbol>
<symbol id="ico-download" viewBox="0 0 32 32">
<path d="M23 14l-8 8-8-8h5v-12h6v12zM15 22h-15v8h30v-8h-15zM28 26h-4v-2h4v2z"></path>
</symbol>
<symbol id="ico-cross" viewBox="0 0 32 32">
<path d="M31.708 25.708c-0-0-0-0-0-0l-9.708-9.708 9.708-9.708c0-0 0-0 0-0 0.105-0.105 0.18-0.227 0.229-0.357 0.133-0.356 0.057-0.771-0.229-1.057l-4.586-4.586c-0.286-0.286-0.702-0.361-1.057-0.229-0.13 0.048-0.252 0.124-0.357 0.228 0 0-0 0-0 0l-9.708 9.708-9.708-9.708c-0-0-0-0-0-0-0.105-0.104-0.227-0.18-0.357-0.228-0.356-0.133-0.771-0.057-1.057 0.229l-4.586 4.586c-0.286 0.286-0.361 0.702-0.229 1.057 0.049 0.13 0.124 0.252 0.229 0.357 0 0 0 0 0 0l9.708 9.708-9.708 9.708c-0 0-0 0-0 0-0.104 0.105-0.18 0.227-0.229 0.357-0.133 0.355-0.057 0.771 0.229 1.057l4.586 4.586c0.286 0.286 0.702 0.361 1.057 0.229 0.13-0.049 0.252-0.124 0.357-0.229 0-0 0-0 0-0l9.708-9.708 9.708 9.708c0 0 0 0 0 0 0.105 0.105 0.227 0.18 0.357 0.229 0.356 0.133 0.771 0.057 1.057-0.229l4.586-4.586c0.286-0.286 0.362-0.702 0.229-1.057-0.049-0.13-0.124-0.252-0.229-0.357z"></path>
</symbol>
<symbol id="ico-terminal" viewBox="0 0 32 32">
<path d="M0 2v28h32v-28h-32zM30 28h-28v-24h28v24zM28 6h-24v20h24v-20zM14 16h-2v2h-2v2h-2v-2h2v-2h2v-2h-2v-2h-2v-2h2v2h2v2h2v2zM22 20h-6v-2h6v2z"></path>
</symbol>
<symbol id="ico-github1" viewBox="0 0 32 32">
<path d="M16 0.395c-8.836 0-16 7.163-16 16 0 7.069 4.585 13.067 10.942 15.182 0.8 0.148 1.094-0.347 1.094-0.77 0-0.381-0.015-1.642-0.022-2.979-4.452 0.968-5.391-1.888-5.391-1.888-0.728-1.849-1.776-2.341-1.776-2.341-1.452-0.993 0.11-0.973 0.11-0.973 1.606 0.113 2.452 1.649 2.452 1.649 1.427 2.446 3.743 1.739 4.656 1.33 0.143-1.034 0.558-1.74 1.016-2.14-3.554-0.404-7.29-1.777-7.29-7.907 0-1.747 0.625-3.174 1.649-4.295-0.166-0.403-0.714-2.030 0.155-4.234 0 0 1.344-0.43 4.401 1.64 1.276-0.355 2.645-0.532 4.005-0.539 1.359 0.006 2.729 0.184 4.008 0.539 3.054-2.070 4.395-1.64 4.395-1.64 0.871 2.204 0.323 3.831 0.157 4.234 1.026 1.12 1.647 2.548 1.647 4.295 0 6.145-3.743 7.498-7.306 7.895 0.574 0.497 1.085 1.47 1.085 2.963 0 2.141-0.019 3.864-0.019 4.391 0 0.426 0.288 0.925 1.099 0.768 6.354-2.118 10.933-8.113 10.933-15.18 0-8.837-7.164-16-16-16z"></path>
</symbol>
<symbol id="ico-linkedin2" viewBox="0 0 32 32">
<path d="M12 12h5.535v2.837h0.079c0.77-1.381 2.655-2.837 5.464-2.837 5.842 0 6.922 3.637 6.922 8.367v9.633h-5.769v-8.54c0-2.037-0.042-4.657-3.001-4.657-3.005 0-3.463 2.218-3.463 4.509v8.688h-5.767v-18z"></path>
<path d="M2 12h6v18h-6v-18z"></path>
<path d="M8 7c0 1.657-1.343 3-3 3s-3-1.343-3-3c0-1.657 1.343-3 3-3s3 1.343 3 3z"></path>
</symbol>
<symbol id="ico-newspaper" viewBox="0 0 32 32">
<path d="M28 8v-4h-28v22c0 1.105 0.895 2 2 2h27c1.657 0 3-1.343 3-3v-17h-4zM26 26h-24v-20h24v20zM4 10h20v2h-20zM16 14h8v2h-8zM16 18h8v2h-8zM16 22h6v2h-6zM4 14h10v10h-10z"></path>
</symbol>
<symbol id="ico-pacman" viewBox="0 0 32 32">
<path d="M30.148 5.588c-2.934-3.42-7.288-5.588-12.148-5.588-8.837 0-16 7.163-16 16s7.163 16 16 16c4.86 0 9.213-2.167 12.148-5.588l-10.148-10.412 10.148-10.412zM22 3.769c1.232 0 2.231 0.999 2.231 2.231s-0.999 2.231-2.231 2.231-2.231-0.999-2.231-2.231c0-1.232 0.999-2.231 2.231-2.231z"></path>
</symbol>
<symbol id="ico-files-empty" viewBox="0 0 32 32">
<path d="M28.681 11.159c-0.694-0.947-1.662-2.053-2.724-3.116s-2.169-2.030-3.116-2.724c-1.612-1.182-2.393-1.319-2.841-1.319h-11.5c-1.379 0-2.5 1.122-2.5 2.5v23c0 1.378 1.121 2.5 2.5 2.5h19c1.378 0 2.5-1.122 2.5-2.5v-15.5c0-0.448-0.137-1.23-1.319-2.841zM24.543 9.457c0.959 0.959 1.712 1.825 2.268 2.543h-4.811v-4.811c0.718 0.556 1.584 1.309 2.543 2.268v0zM28 29.5c0 0.271-0.229 0.5-0.5 0.5h-19c-0.271 0-0.5-0.229-0.5-0.5v-23c0-0.271 0.229-0.5 0.5-0.5 0 0 11.499-0 11.5 0v7c0 0.552 0.448 1 1 1h7v15.5z"></path>
<path d="M18.841 1.319c-1.612-1.182-2.393-1.319-2.841-1.319h-11.5c-1.378 0-2.5 1.121-2.5 2.5v23c0 1.207 0.86 2.217 2 2.45v-25.45c0-0.271 0.229-0.5 0.5-0.5h15.215c-0.301-0.248-0.595-0.477-0.873-0.681z"></path>
</symbol>
<symbol id="ico-terminal1" viewBox="0 0 32 32">
<path d="M0 2v28h32v-28h-32zM30 28h-28v-24h28v24zM28 6h-24v20h24v-20zM14 16h-2v2h-2v2h-2v-2h2v-2h2v-2h-2v-2h-2v-2h2v2h2v2h2v2zM22 20h-6v-2h6v2z"></path>
</symbol>
<symbol id="ico-tux" viewBox="0 0 32 32">
<path d="M17.739 23.029c-2.561 1.191-4.942 1.179-6.542 1.063-1.908-0.138-3.442-0.66-4.117-1.117-0.416-0.281-0.981-0.173-1.262 0.243s-0.173 0.981 0.243 1.262c1.084 0.734 3.002 1.28 5.005 1.424 0.34 0.024 0.712 0.040 1.114 0.040 1.743 0 3.957-0.166 6.326-1.268 0.455-0.212 0.652-0.752 0.441-1.207s-0.752-0.652-1.208-0.441zM27.842 21.682c0.087-7.896 0.899-22.819-14.218-21.613-14.925 1.201-10.968 16.968-11.19 22.248-0.197 2.793-1.124 6.208-2.434 9.683h4.034c0.415-1.473 0.72-2.929 0.851-4.317 0.243 0.17 0.503 0.334 0.781 0.491 0.452 0.266 0.84 0.62 1.251 0.995 0.961 0.876 2.050 1.868 4.179 1.992 0.143 0.008 0.287 0.012 0.427 0.012 2.153 0 3.625-0.942 4.809-1.699 0.567-0.363 1.057-0.676 1.518-0.827 1.31-0.41 2.454-1.072 3.309-1.914 0.134-0.131 0.258-0.267 0.374-0.405 0.476 1.746 1.129 3.711 1.853 5.672h8.614c-2.068-3.195-4.201-6.324-4.158-10.318zM3.878 17.386c0-0 0-0.001-0-0.001-0.148-2.577 1.085-4.745 2.754-4.842s3.142 1.913 3.291 4.49c0 0 0 0.001 0 0.001 0.008 0.139 0.011 0.276 0.012 0.413-0.529 0.133-1.006 0.326-1.434 0.551-0.002-0.019-0.003-0.038-0.005-0.057 0-0 0-0.001 0-0.001-0.143-1.463-0.924-2.567-1.745-2.467s-1.371 1.367-1.228 2.83c0 0 0 0.001 0 0.001 0.062 0.638 0.246 1.207 0.501 1.639-0.064 0.050-0.243 0.182-0.45 0.333-0.155 0.114-0.344 0.252-0.572 0.42-0.621-0.815-1.047-1.987-1.123-3.309zM20.789 23.756c-0.059 1.362-1.841 2.643-3.487 3.158l-0.009 0.003c-0.684 0.222-1.295 0.613-1.941 1.026-1.085 0.695-2.208 1.413-3.829 1.413-0.106 0-0.215-0.003-0.323-0.009-1.485-0.087-2.179-0.72-3.059-1.521-0.464-0.423-0.943-0.86-1.562-1.223l-0.013-0.008c-1.335-0.753-2.163-1.69-2.216-2.506-0.026-0.406 0.154-0.757 0.537-1.044 0.832-0.624 1.39-1.032 1.759-1.302 0.41-0.3 0.533-0.39 0.625-0.477 0.066-0.062 0.136-0.131 0.213-0.205 0.764-0.743 2.043-1.986 4.005-1.986 1.2 0 2.528 0.462 3.943 1.372 0.666 0.434 1.246 0.634 1.981 0.887 0.505 0.174 1.077 0.372 1.843 0.7l0.012 0.005c0.715 0.294 1.559 0.83 1.521 1.717zM20.395 20.556c-0.137-0.069-0.28-0.135-0.43-0.196-0.691-0.296-1.245-0.496-1.704-0.656 0.254-0.497 0.411-1.116 0.426-1.789 0-0 0-0.001 0-0.001 0.035-1.637-0.79-2.966-1.844-2.968s-1.936 1.322-1.971 2.959c0 0 0 0.001 0 0.001-0.001 0.054-0.001 0.107-0.001 0.16-0.649-0.299-1.287-0.515-1.911-0.649-0.003-0.061-0.006-0.123-0.008-0.185 0-0 0-0.001 0-0.002-0.061-2.982 1.769-5.45 4.086-5.513s4.245 2.303 4.305 5.285c0 0.001 0 0.001 0 0.002 0.027 1.348-0.333 2.59-0.949 3.552z"></path>
</symbol>
<symbol id="ico-user" viewBox="0 0 20 28">
<path d="M20 21.859c0 2.281-1.5 4.141-3.328 4.141h-13.344c-1.828 0-3.328-1.859-3.328-4.141 0-4.109 1.016-8.859 5.109-8.859 1.266 1.234 2.984 2 4.891 2s3.625-0.766 4.891-2c4.094 0 5.109 4.75 5.109 8.859zM16 8c0 3.313-2.688 6-6 6s-6-2.688-6-6 2.688-6 6-6 6 2.688 6 6z"></path>
</symbol>
<symbol id="ico-home" viewBox="0 0 26 28">
<path d="M22 15.5v7.5c0 0.547-0.453 1-1 1h-6v-6h-4v6h-6c-0.547 0-1-0.453-1-1v-7.5c0-0.031 0.016-0.063 0.016-0.094l8.984-7.406 8.984 7.406c0.016 0.031 0.016 0.063 0.016 0.094zM25.484 14.422l-0.969 1.156c-0.078 0.094-0.203 0.156-0.328 0.172h-0.047c-0.125 0-0.234-0.031-0.328-0.109l-10.813-9.016-10.813 9.016c-0.109 0.078-0.234 0.125-0.375 0.109-0.125-0.016-0.25-0.078-0.328-0.172l-0.969-1.156c-0.172-0.203-0.141-0.531 0.063-0.703l11.234-9.359c0.656-0.547 1.719-0.547 2.375 0l3.813 3.187v-3.047c0-0.281 0.219-0.5 0.5-0.5h3c0.281 0 0.5 0.219 0.5 0.5v6.375l3.422 2.844c0.203 0.172 0.234 0.5 0.063 0.703z"></path>
</symbol>
<symbol id="ico-chevron-down" viewBox="0 0 28 28">
<path d="M26.297 12.625l-11.594 11.578c-0.391 0.391-1.016 0.391-1.406 0l-11.594-11.578c-0.391-0.391-0.391-1.031 0-1.422l2.594-2.578c0.391-0.391 1.016-0.391 1.406 0l8.297 8.297 8.297-8.297c0.391-0.391 1.016-0.391 1.406 0l2.594 2.578c0.391 0.391 0.391 1.031 0 1.422z"></path>
</symbol>
<symbol id="ico-gears" viewBox="0 0 30 28">
<path d="M14 14c0-2.203-1.797-4-4-4s-4 1.797-4 4 1.797 4 4 4 4-1.797 4-4zM26 22c0-1.094-0.906-2-2-2s-2 0.906-2 2c0 1.109 0.906 2 2 2 1.109 0 2-0.906 2-2zM26 6c0-1.094-0.906-2-2-2s-2 0.906-2 2c0 1.109 0.906 2 2 2 1.109 0 2-0.906 2-2zM20 12.578v2.891c0 0.203-0.156 0.438-0.359 0.469l-2.422 0.375c-0.125 0.406-0.297 0.797-0.5 1.188 0.438 0.625 0.906 1.203 1.406 1.797 0.063 0.094 0.109 0.187 0.109 0.313 0 0.109-0.031 0.219-0.109 0.297-0.313 0.422-2.063 2.328-2.516 2.328-0.125 0-0.234-0.047-0.328-0.109l-1.797-1.406c-0.391 0.203-0.781 0.359-1.203 0.484-0.078 0.797-0.156 1.656-0.359 2.422-0.063 0.219-0.25 0.375-0.469 0.375h-2.906c-0.219 0-0.438-0.172-0.469-0.391l-0.359-2.391c-0.406-0.125-0.797-0.297-1.172-0.484l-1.844 1.391c-0.078 0.078-0.203 0.109-0.313 0.109-0.125 0-0.234-0.047-0.328-0.125-0.406-0.375-2.25-2.047-2.25-2.5 0-0.109 0.047-0.203 0.109-0.297 0.453-0.594 0.922-1.172 1.375-1.781-0.219-0.422-0.406-0.844-0.547-1.281l-2.375-0.375c-0.219-0.031-0.375-0.234-0.375-0.453v-2.891c0-0.203 0.156-0.438 0.359-0.469l2.422-0.375c0.125-0.406 0.297-0.797 0.5-1.188-0.438-0.625-0.906-1.203-1.406-1.797-0.063-0.094-0.109-0.203-0.109-0.313s0.031-0.219 0.109-0.313c0.313-0.422 2.063-2.312 2.516-2.312 0.125 0 0.234 0.047 0.328 0.109l1.797 1.406c0.391-0.203 0.781-0.359 1.203-0.5 0.078-0.781 0.156-1.641 0.359-2.406 0.063-0.219 0.25-0.375 0.469-0.375h2.906c0.219 0 0.438 0.172 0.469 0.391l0.359 2.391c0.406 0.125 0.797 0.297 1.172 0.484l1.844-1.391c0.094-0.078 0.203-0.109 0.313-0.109 0.125 0 0.234 0.047 0.328 0.125 0.406 0.375 2.25 2.063 2.25 2.5 0 0.109-0.047 0.203-0.109 0.297-0.453 0.609-0.922 1.172-1.359 1.781 0.203 0.422 0.391 0.844 0.531 1.281l2.375 0.359c0.219 0.047 0.375 0.25 0.375 0.469zM30 20.906v2.188c0 0.234-2.016 0.453-2.328 0.484-0.125 0.297-0.281 0.562-0.469 0.812 0.141 0.313 0.797 1.875 0.797 2.156 0 0.047-0.016 0.078-0.063 0.109-0.187 0.109-1.859 1.109-1.937 1.109-0.203 0-1.375-1.563-1.531-1.797-0.156 0.016-0.313 0.031-0.469 0.031s-0.313-0.016-0.469-0.031c-0.156 0.234-1.328 1.797-1.531 1.797-0.078 0-1.75-1-1.937-1.109-0.047-0.031-0.063-0.078-0.063-0.109 0-0.266 0.656-1.844 0.797-2.156-0.187-0.25-0.344-0.516-0.469-0.812-0.313-0.031-2.328-0.25-2.328-0.484v-2.188c0-0.234 2.016-0.453 2.328-0.484 0.125-0.281 0.281-0.562 0.469-0.812-0.141-0.313-0.797-1.891-0.797-2.156 0-0.031 0.016-0.078 0.063-0.109 0.187-0.094 1.859-1.094 1.937-1.094 0.203 0 1.375 1.547 1.531 1.781 0.156-0.016 0.313-0.031 0.469-0.031s0.313 0.016 0.469 0.031c0.438-0.609 0.906-1.219 1.437-1.75l0.094-0.031c0.078 0 1.75 0.984 1.937 1.094 0.047 0.031 0.063 0.078 0.063 0.109 0 0.281-0.656 1.844-0.797 2.156 0.187 0.25 0.344 0.531 0.469 0.812 0.313 0.031 2.328 0.25 2.328 0.484zM30 4.906v2.187c0 0.234-2.016 0.453-2.328 0.484-0.125 0.297-0.281 0.562-0.469 0.812 0.141 0.313 0.797 1.875 0.797 2.156 0 0.047-0.016 0.078-0.063 0.109-0.187 0.109-1.859 1.109-1.937 1.109-0.203 0-1.375-1.563-1.531-1.797-0.156 0.016-0.313 0.031-0.469 0.031s-0.313-0.016-0.469-0.031c-0.156 0.234-1.328 1.797-1.531 1.797-0.078 0-1.75-1-1.937-1.109-0.047-0.031-0.063-0.078-0.063-0.109 0-0.266 0.656-1.844 0.797-2.156-0.187-0.25-0.344-0.516-0.469-0.812-0.313-0.031-2.328-0.25-2.328-0.484v-2.188c0-0.234 2.016-0.453 2.328-0.484 0.125-0.281 0.281-0.562 0.469-0.812-0.141-0.313-0.797-1.891-0.797-2.156 0-0.031 0.016-0.078 0.063-0.109 0.187-0.094 1.859-1.094 1.937-1.094 0.203 0 1.375 1.547 1.531 1.781 0.156-0.016 0.313-0.031 0.469-0.031s0.313 0.016 0.469 0.031c0.438-0.609 0.906-1.219 1.437-1.75l0.094-0.031c0.078 0 1.75 0.984 1.937 1.094 0.047 0.031 0.063 0.078 0.063 0.109 0 0.281-0.656 1.844-0.797 2.156 0.187 0.25 0.344 0.531 0.469 0.812 0.313 0.031 2.328 0.25 2.328 0.484z"></path>
</symbol>
<symbol id="ico-burger" viewBox="0 0 24 28">
<path d="M24 21v2c0 0.547-0.453 1-1 1h-22c-0.547 0-1-0.453-1-1v-2c0-0.547 0.453-1 1-1h22c0.547 0 1 0.453 1 1zM24 13v2c0 0.547-0.453 1-1 1h-22c-0.547 0-1-0.453-1-1v-2c0-0.547 0.453-1 1-1h22c0.547 0 1 0.453 1 1zM24 5v2c0 0.547-0.453 1-1 1h-22c-0.547 0-1-0.453-1-1v-2c0-0.547 0.453-1 1-1h22c0.547 0 1 0.453 1 1z"></path>
</symbol>
<symbol id="ico-envelope" viewBox="0 0 28 28">
<path d="M28 11.094v12.406c0 1.375-1.125 2.5-2.5 2.5h-23c-1.375 0-2.5-1.125-2.5-2.5v-12.406c0.469 0.516 1 0.969 1.578 1.359 2.594 1.766 5.219 3.531 7.766 5.391 1.313 0.969 2.938 2.156 4.641 2.156h0.031c1.703 0 3.328-1.188 4.641-2.156 2.547-1.844 5.172-3.625 7.781-5.391 0.562-0.391 1.094-0.844 1.563-1.359zM28 6.5c0 1.75-1.297 3.328-2.672 4.281-2.438 1.687-4.891 3.375-7.313 5.078-1.016 0.703-2.734 2.141-4 2.141h-0.031c-1.266 0-2.984-1.437-4-2.141-2.422-1.703-4.875-3.391-7.297-5.078-1.109-0.75-2.688-2.516-2.688-3.938 0-1.531 0.828-2.844 2.5-2.844h23c1.359 0 2.5 1.125 2.5 2.5z"></path>
</symbol>
<symbol id="ico-gitlab1" viewBox="0 0 28 28">
<path d="M1.625 11.031l12.375 15.859-13.563-9.844c-0.375-0.281-0.531-0.766-0.391-1.203l1.578-4.813zM8.844 11.031h10.313l-5.156 15.859zM5.75 1.469l3.094 9.562h-7.219l3.094-9.562c0.172-0.484 0.859-0.484 1.031 0zM26.375 11.031l1.578 4.813c0.141 0.438-0.016 0.922-0.391 1.203l-13.563 9.844 12.375-15.859zM26.375 11.031h-7.219l3.094-9.562c0.172-0.484 0.859-0.484 1.031 0z"></path>
</symbol>
</defs>
</svg>